<svg width="452" height="212" viewBox="0 0 452 212" fill="none" xmlns="http://www.w3.org/2000/svg">
  <path
    d="M7.97477 59.566C104.165 3.07395 172.144 17.5589 189.784 41.5487C199.713 55.0527 207.249 52.5017 220.59 42.2678C220.721 42.1347 220.871 42.0191 221.034 41.9262C267.968 15.2191 289.5 26.4999 341.293 36.4924C416.247 42.1493 432.021 -19.9411 420 14C414.098 30.6642 417.305 50.9233 427 82C427.204 82.6528 428.816 91.9868 428.547 93.3537C428.526 93.4609 428.443 93.5342 428.356 93.5995C409.402 107.737 398.35 113.699 354.121 109.487C328.954 106.071 258 67.8876 218.823 99.7785L121.629 49.6747C120.92 49.3619 120.105 49.477 119.521 49.9879C88.4207 77.2092 40.2978 123.455 38.4563 130.673C38.3427 131.118 38.6926 131.455 39.1114 131.644C77.0531 148.813 112.666 167.1 125.791 174.131L218.823 121.5C258 111 317.626 141.5 341.293 152.5C364.961 163.5 406.55 158.531 428.489 143C428.621 142.907 428.76 142.832 428.91 142.773L434.872 140.42C435.948 139.995 437.16 140.57 437.509 141.673C441.817 155.274 445.637 168.428 448.202 180.419C448.374 181.223 448.022 182.055 447.332 182.502C404.202 207.419 375.066 195.657 349.779 191.466C297.126 182.739 246 153.625 219.44 199.239L125.791 174.131C106.04 166.107 49.0698 193.577 29.2708 207.012C23.0098 211.26 13.3609 204.537 11.5931 196.405C10.5855 191.77 25.0281 174.485 22.5533 153.625C21.2927 143.001 -4.6762 94.1744 7.10945 60.6035C7.26221 60.1684 7.57712 59.7996 7.97477 59.566Z"
    fill="#fff" />
  <path
    d="M125.791 174.131C106.04 166.107 49.0698 193.577 29.2708 207.012C23.0098 211.26 13.3609 204.537 11.5931 196.405C10.5855 191.77 25.0281 174.485 22.5533 153.625C21.2927 143.001 -4.6762 94.1744 7.10945 60.6035C7.26221 60.1684 7.57712 59.7996 7.97477 59.566C104.165 3.07395 172.144 17.5589 189.784 41.5487C199.713 55.0527 207.249 52.5017 220.59 42.2678M125.791 174.131C112.666 167.1 77.0531 148.813 39.1114 131.644C38.6926 131.455 38.3427 131.118 38.4563 130.673C40.2978 123.455 88.4207 77.2092 119.521 49.9879C120.105 49.477 120.92 49.3619 121.629 49.6747L218.823 99.7785M125.791 174.131L219.44 199.239M125.791 174.131L218.823 121.5M221.034 41.9262C220.885 42.041 220.737 42.1548 220.59 42.2678M221.034 41.9262C267.968 15.2191 289.5 26.4999 341.293 36.4924C416.247 42.1493 432.021 -19.9411 420 14C414.098 30.6642 417.305 50.9233 427 82C427.204 82.6528 428.816 91.9868 428.547 93.3537C428.526 93.4609 428.443 93.5342 428.356 93.5995C409.402 107.737 398.35 113.699 354.121 109.487C328.954 106.071 258 67.8876 218.823 99.7785M221.034 41.9262C220.871 42.0191 220.721 42.1347 220.59 42.2678M220.59 42.2678C220.233 42.6295 220.009 43.1196 219.996 43.6303C219.513 62.9882 219.134 86.2894 218.823 99.7785M219.44 199.239C246 153.625 297.126 182.739 349.779 191.466C375.066 195.657 404.202 207.419 447.332 182.502C448.022 182.055 448.374 181.223 448.202 180.419C445.637 168.428 441.817 155.274 437.509 141.673C437.16 140.57 435.948 139.995 434.872 140.42L428.91 142.773C428.76 142.832 428.621 142.907 428.489 143C406.55 158.531 364.961 163.5 341.293 152.5C317.626 141.5 258 111 218.823 121.5M219.44 199.239L218.823 121.5"
    stroke="black" stroke-width="7" />
</svg>