<svg width="512" height="512" viewBox="0 0 512 512" fill="none" xmlns="http://www.w3.org/2000/svg">
  <g clip-path="url(#clip0)">
    <path
      d="M236.606 296.607L256 277.213L275.394 296.607C281.251 302.464 290.749 302.465 296.607 296.607C302.465 290.749 302.465 281.252 296.607 275.394L266.607 245.394C260.75 239.536 251.252 239.536 245.394 245.394L215.394 275.394C209.536 281.252 209.536 290.749 215.394 296.607C221.251 302.465 230.749 302.465 236.606 296.607ZM511.229 492.256C509.014 487.054 494.405 430.078 446.308 368.889C449.415 356.98 450.998 344.322 450.998 331C450.998 286.097 424.787 234.231 379.085 188.701C358.906 168.598 337.049 151.986 316.062 140.241L270.146 10.0129C268.031 4.01396 262.361 0.000976562 256 0.000976562C249.639 0.000976562 243.969 4.01396 241.854 10.0129L195.937 140.24C174.95 151.985 153.093 168.597 132.915 188.7C87.2127 234.23 61.0008 286.096 61.0008 330.999C61.0008 344.32 62.5838 356.979 65.6908 368.889C17.406 430.317 3.08904 486.81 0.771045 492.255C-1.25595 498.334 0.803045 505.029 5.89602 508.919C10.989 512.809 17.99 513.033 23.322 509.479C26.6079 507.687 73.0537 472.44 142.408 457.863C173.698 473.052 212.42 480.998 256 480.998C299.58 480.998 338.302 473.052 369.592 457.863C438.48 472.342 485.617 507.809 488.678 509.479C494.032 513.048 501.032 512.792 506.103 508.919C511.196 505.03 513.256 498.335 511.229 492.256ZM256 60.1097L278.655 124.363C270.595 122.168 262.973 121.001 256 121.001C249.027 121.001 241.405 122.168 233.345 124.363L256 60.1097ZM44.2319 461.88C53.6518 440.807 65.3558 420.366 78.9527 401.233C86.4027 414.069 96.1247 425.62 108.031 435.713C86.2307 442.291 64.7768 451.08 44.2319 461.88ZM256 450.999C170.505 450.999 91.0007 416.781 91.0007 331C91.0007 294.559 114.585 249.308 154.086 209.954C188.928 175.243 230.836 151 256 151C281.164 151 323.071 175.243 357.914 209.954C397.415 249.308 420.999 294.559 420.999 331C420.999 416.558 341.847 450.999 256 450.999ZM403.968 435.713C415.874 425.619 425.596 414.069 433.046 401.233C446.643 420.366 458.347 440.807 467.767 461.881C447.222 451.08 425.769 442.291 403.968 435.713ZM346 241C337.716 241 331 247.716 331 256C331 264.284 337.716 271 346 271C354.284 271 361 264.284 361 256C361 247.716 354.284 241 346 241ZM166 271C174.284 271 181 264.284 181 256C181 247.716 174.284 241 166 241C157.716 241 151 247.716 151 256C151 264.284 157.716 271 166 271ZM326.606 335.393C320.749 329.535 311.251 329.535 305.393 335.393L285.999 354.787L266.605 335.393C260.748 329.535 251.25 329.535 245.392 335.393L225.998 354.787L206.604 335.393C200.747 329.535 191.249 329.535 185.391 335.393L155.391 365.393C149.533 371.251 149.533 380.747 155.391 386.605C161.248 392.463 170.746 392.463 176.604 386.605L195.998 367.212L215.392 386.605C221.249 392.463 230.747 392.463 236.605 386.605L255.999 367.212L275.393 386.605C281.25 392.463 290.748 392.463 296.606 386.605L316 367.212L335.394 386.605C341.251 392.462 350.749 392.463 356.607 386.605C362.465 380.747 362.465 371.251 356.607 365.393L326.606 335.393Z"
      fill="#fff" />
  </g>
  <defs>
    <clipPath id="clip0">
      <rect width="512" height="512" fill="#fff" />
    </clipPath>
  </defs>
</svg>