<svg width="512" height="512" viewBox="0 0 512 512" fill="none" xmlns="http://www.w3.org/2000/svg">
  <path
    d="M286 331C277.716 331 271 337.716 271 346C271 354.284 277.716 361 286 361C294.284 361 301 354.284 301 346C301 337.716 294.284 331 286 331ZM481.653 273.449C475.092 155.197 376.388 61 256 61C135.612 61 36.908 155.197 30.347 273.449C12.707 279.541 0 296.315 0 316V436C0 444.284 6.716 451 15 451C67.804 451 111.623 411.817 118.924 361H151C151 410.626 198.103 451 256 451C313.897 451 361 410.626 361 361H393.076C400.377 411.817 444.196 451 497 451C505.284 451 512 444.284 512 436V316C512 296.315 499.293 279.541 481.653 273.449ZM256 91C282.015 91 306.856 96.081 329.59 105.278L306.729 151H205.271L182.41 105.278C205.144 96.081 229.985 91 256 91ZM30 419.493V358.42C34.695 360.085 39.742 361 45 361H88.475C82.492 390.341 59.341 413.513 30 419.493ZM256 421C214.645 421 181 394.084 181 361C181 327.916 214.645 301 256 301C297.355 301 331 327.916 331 361C331 394.084 297.355 421 256 421ZM482 419.493C452.659 413.512 429.508 390.34 423.525 361H467C472.258 361 477.305 360.085 482 358.42V419.493ZM467 331H354.994C340.547 296.08 301.629 271 256 271C210.371 271 171.453 296.08 157.006 331H45C36.729 331 30 324.271 30 316C30 307.729 36.729 301 45 301C53.284 301 60 294.284 60 286C60 214.985 98.36 152.724 155.542 118.624L179.229 166L156.729 211H136C127.716 211 121 217.716 121 226C121 234.284 127.716 241 136 241H166C171.682 241 176.875 237.79 179.417 232.708L205.271 181H306.73L332.584 232.708C335.125 237.79 340.318 241 346 241H376C384.284 241 391 234.284 391 226C391 217.716 384.284 211 376 211H355.271L332.771 166L356.459 118.624C413.64 152.724 452 214.985 452 286C452 294.284 458.716 301 467 301C475.271 301 482 307.729 482 316C482 324.271 475.271 331 467 331ZM226 331C217.716 331 211 337.716 211 346C211 354.284 217.716 361 226 361C234.284 361 241 354.284 241 346C241 337.716 234.284 331 226 331Z"
    fill="#fff" />
</svg>