<svg width="512" height="512" viewBox="0 0 512 512" fill="none" xmlns="http://www.w3.org/2000/svg">
  <path
    d="M196 300C187.716 300 181 306.716 181 315C181 323.284 187.716 330 196 330C204.284 330 211 323.284 211 315C211 306.716 204.284 300 196 300ZM497 392C488.716 392 482 398.716 482 407V437C482 461.393 460.935 482 436 482C411.187 482 391 461.813 391 437C391 416.431 391 282.191 391 263.465L490.347 203.475C490.356 203.47 490.363 203.463 490.372 203.458C490.381 203.452 490.391 203.448 490.4 203.442C503.925 195.199 512 180.828 512 165C512 148.888 503.304 133.91 489.304 125.911C489.299 125.908 489.295 125.907 489.29 125.904C489.286 125.901 489.282 125.898 489.277 125.896C489.277 125.896 278.305 5.911 278.304 5.911C278.303 5.911 278.302 5.91 278.301 5.91L278.277 5.896C278.264 5.889 278.251 5.884 278.239 5.877C271.488 2.033 263.8 0 256 0C248.204 0 240.52 2.031 233.77 5.871C233.754 5.88 233.737 5.886 233.721 5.896L22.721 125.896C22.717 125.899 22.713 125.902 22.708 125.904C22.703 125.907 22.698 125.909 22.694 125.911C8.696 133.91 0 148.888 0 165C0 180.827 8.075 195.198 21.601 203.443C21.611 203.449 21.622 203.454 21.632 203.46C21.64 203.465 21.647 203.47 21.654 203.475L121 263.465V437C121 461.813 100.813 482 76 482C51.065 482 30 461.393 30 437V407C30 398.716 23.284 392 15 392C6.716 392 0 398.716 0 407V437C0 478.458 34.534 512 76 512C117.355 512 151 478.355 151 437V390H181V497C181 505.284 187.716 512 196 512C204.284 512 211 505.284 211 497V390H241V497C241 505.284 247.716 512 256 512C264.284 512 271 505.284 271 497V390H301V497C301 505.284 307.716 512 316 512C324.284 512 331 505.284 331 497V390H361V437C361 478.355 394.645 512 436 512C477.457 512 512 478.466 512 437V407C512 398.716 505.284 392 497 392ZM122.037 229.046L37.211 177.824C32.696 175.069 30 170.276 30 165C30 159.627 32.904 154.63 37.58 151.958L175.033 73.785C144.659 120.174 126.393 173.511 122.037 229.046ZM361 360H151V255C151 181.291 177.947 110.338 226.878 55.212C245.434 34.211 247.401 30 256 30C264.708 30 266.593 34.242 285.122 55.212C334.053 110.338 361 181.291 361 255V360ZM336.967 73.785L474.421 151.958C479.096 154.63 482 159.627 482 165C482 170.274 479.307 175.065 474.796 177.82L389.963 229.046C385.607 173.511 367.341 120.174 336.967 73.785ZM316 330C324.284 330 331 323.284 331 315C331 306.716 324.284 300 316 300C307.716 300 301 306.716 301 315C301 323.284 307.716 330 316 330Z"
    fill="#fff" />
</svg>