<svg width="512" height="512" viewBox="0 0 512 512" fill="none" xmlns="http://www.w3.org/2000/svg">
  <g clip-path="url(#clip0)">
    <path
      d="M136 241C127.716 241 121 247.716 121 256C121 264.284 127.716 271 136 271C144.284 271 151 264.284 151 256C151 247.716 144.284 241 136 241ZM376 271C384.284 271 391 264.284 391 256C391 247.716 384.284 241 376 241C367.716 241 361 247.716 361 256C361 264.285 367.716 271 376 271ZM492.514 397.43C481.924 379.821 467.611 364.832 450.782 353.607C450.923 351.088 451.001 348.553 451.001 346V286C451.001 211.561 390.44 151 316.001 151H303.559C309.8 133.167 326.718 120 346.001 120C387.356 120 421.001 86.355 421.001 45V15C421.001 8.93304 417.347 3.46404 411.741 1.14204C406.138 -1.17996 399.685 0.103042 395.394 4.39304C365.842 33.943 330.629 29.603 328.426 30C301.831 30 276.585 38.783 256 54.974C235.415 38.783 210.169 30 183.574 30C181.347 29.599 146.119 33.902 116.606 4.39304C112.315 0.103042 105.863 -1.17896 100.259 1.14204C94.655 3.46404 91 8.93404 91 15V45C91 86.355 124.645 120 166 120C185.283 120 202.201 133.167 208.442 151H196C121.561 151 61 211.561 61 286C61 286 61.078 351.089 61.219 353.607C44.39 364.832 30.077 379.821 19.487 397.43C6.739 418.626 0 442.683 0 467V497C0 505.284 6.716 512 15 512C56.845 512 96.665 492.068 122.385 459.107C143.573 472.944 168.862 481 196 481H316C343.138 481 368.427 472.944 389.615 459.107C415.335 492.069 455.155 512 497 512C505.284 512 512 505.284 512 497V467C512 442.683 505.262 418.626 492.514 397.43ZM91 286C91 228.103 138.103 181 196 181H226C234.284 181 241 174.284 241 166C241 145.969 233.241 127 219.152 112.588C204.914 98.022 186.038 90 166 90C141.207 90 121.032 69.846 121 45.06C152.24 62.628 180.599 59.659 183.574 60C206.926 60 228.881 69.094 245.393 85.607C251.25 91.465 260.748 91.465 266.606 85.607C283.119 69.094 305.074 60 328.426 60C331.427 59.656 359.631 62.7 391 45.06C390.968 69.846 370.793 90 346 90C325.962 90 307.086 98.022 292.848 112.588C278.759 127.001 271 145.97 271 166C271 174.284 277.716 181 286 181H316C373.897 181 421 228.103 421 286V329.936C396.407 326.462 375.313 314.934 353.198 302.84C324.577 287.187 294.982 271 256 271C217.02 271 187.424 287.186 158.803 302.84C136.688 314.935 115.595 326.463 91 329.937V286ZM30 480.9V467C30 436.478 44.161 406.744 67.262 386.661C73.678 406.929 84.758 425.139 99.236 440.033C82.252 462.159 57.219 476.895 30 480.9ZM316 451H196C142.874 451 98.843 411.339 91.946 360.071C123.301 356.436 148.613 342.606 173.198 329.16C199.677 314.679 224.688 301 256 301C287.313 301 312.324 314.679 338.803 329.16C363.389 342.606 388.7 356.436 420.054 360.071C413.157 411.339 369.126 451 316 451ZM482 480.9C454.781 476.895 429.749 462.159 412.764 440.034C427.242 425.14 438.323 406.93 444.738 386.662C467.839 406.744 482 436.479 482 467V480.9Z"
      fill="#fff" />
  </g>
  <defs>
    <clipPath id="clip0">
      <rect width="512" height="512" fill="#fff" />
    </clipPath>
  </defs>
</svg>