<svg width="512" height="512" viewBox="0 0 512 512" fill="none" xmlns="http://www.w3.org/2000/svg">
  <path
    d="M136 286.5C127.716 286.5 121 293.216 121 301.5C121 309.784 127.716 316.5 136 316.5C144.284 316.5 151 309.784 151 301.5C151 293.216 144.284 286.5 136 286.5ZM106 226.5C97.716 226.5 91 233.216 91 241.5C91 249.784 97.716 256.5 106 256.5C114.284 256.5 121 249.784 121 241.5C121 233.216 114.284 226.5 106 226.5ZM196 136.5C204.284 136.5 211 129.784 211 121.5C211 113.216 204.284 106.5 196 106.5C187.716 106.5 181 113.216 181 121.5C181 129.784 187.716 136.5 196 136.5ZM316 136.5C324.284 136.5 331 129.784 331 121.5C331 113.216 324.284 106.5 316 106.5C307.716 106.5 301 113.216 301 121.5C301 129.784 307.716 136.5 316 136.5ZM256 196.5C264.284 196.5 271 189.784 271 181.5C271 173.216 264.284 166.5 256 166.5C247.716 166.5 241 173.216 241 181.5C241 189.784 247.716 196.5 256 196.5ZM202.708 228.083L172.708 213.083C165.301 209.379 156.289 212.381 152.584 219.791C148.879 227.201 151.882 236.211 159.292 239.916L189.292 254.916C196.711 258.625 205.716 255.607 209.416 248.208C213.121 240.799 210.118 231.788 202.708 228.083ZM406 256.5C414.284 256.5 421 249.784 421 241.5C421 233.216 414.284 226.5 406 226.5C397.716 226.5 391 233.216 391 241.5C391 249.784 397.716 256.5 406 256.5ZM512 90.5C512 49.145 478.355 15.5 437 15.5C411.879 15.5 387.798 28.857 373.753 49.693C338.684 28.073 298.234 16.5 256 16.5C213.766 16.5 173.316 28.073 138.247 49.692C124.203 28.857 100.121 15.5 75 15.5C33.645 15.5 0 49.145 0 90.5C0 119.767 18.119 147.636 45.087 159.849C45.409 159.995 45.737 160.108 46.063 160.229C36.172 185.805 31 213.255 31 241.5C31 322.059 74.157 396.478 143.881 436.615C168.139 472.705 209.342 496.5 256 496.5C302.658 496.5 343.861 472.705 368.119 436.615C437.843 396.478 481 322.059 481 241.5C481 213.255 475.828 185.805 465.937 160.229C466.263 160.108 466.591 159.994 466.913 159.849C493.881 147.636 512 119.767 512 90.5ZM57.462 132.521C41.293 125.198 30 107.919 30 90.5C30 65.687 50.187 45.5 75 45.5C90.228 45.5 105.348 54.131 113.803 67.104C91.389 85.448 72.636 107.869 58.702 133.159C58.301 132.931 57.89 132.715 57.462 132.521ZM389.121 383.965C390.35 376.656 391 369.153 391 361.5C391 353.216 384.284 346.5 376 346.5C367.716 346.5 361 353.216 361 361.5C361 419.397 313.897 466.5 256 466.5C198.103 466.5 151 419.397 151 361.5C151 353.216 144.284 346.5 136 346.5C127.716 346.5 121 353.216 121 361.5C121 369.153 121.65 376.656 122.879 383.965C83.937 347.528 61 296.151 61 241.5C61 133.977 148.477 46.5 256 46.5C363.523 46.5 451 133.977 451 241.5C451 296.151 428.063 347.528 389.121 383.965ZM454.538 132.521C454.11 132.715 453.699 132.932 453.298 133.16C439.347 107.84 420.587 85.43 398.197 67.105C406.653 54.131 421.773 45.5 437 45.5C461.813 45.5 482 65.687 482 90.5C482 107.919 470.707 125.198 454.538 132.521ZM339.292 213.083L309.292 228.083C301.882 231.788 298.879 240.798 302.584 248.208C306.282 255.605 315.286 258.627 322.708 254.916L352.708 239.916C360.118 236.211 363.121 227.201 359.416 219.791C355.712 212.383 346.702 209.379 339.292 213.083ZM296.606 342.107C302.464 336.249 302.464 326.752 296.606 320.894C290.749 315.036 281.251 315.036 275.393 320.894L256 340.287L236.606 320.893C230.749 315.035 221.251 315.035 215.393 320.893C209.535 326.751 209.535 336.248 215.393 342.106L241 367.713V396.058C231.406 398.637 222.606 403.68 215.394 410.894C209.536 416.752 209.536 426.249 215.394 432.107C221.251 437.965 230.749 437.965 236.607 432.107C241.788 426.927 248.674 424.074 256.001 424.074C263.328 424.074 270.214 426.927 275.395 432.107C281.251 437.965 290.749 437.965 296.608 432.107C302.466 426.249 302.466 416.752 296.608 410.894C289.395 403.681 280.596 398.638 271.002 396.058V367.713L296.606 342.107ZM376 286.5C367.716 286.5 361 293.216 361 301.5C361 309.784 367.716 316.5 376 316.5C384.284 316.5 391 309.784 391 301.5C391 293.216 384.284 286.5 376 286.5Z"
    fill="#fff" />
</svg>