<svg width="512" height="512" viewBox="0 0 512 512" fill="none" xmlns="http://www.w3.org/2000/svg">
  <path
    d="M512 66.0455V36.0526C512 31.0828 509.539 26.4359 505.427 23.6445C501.314 20.8532 496.087 20.2803 491.469 22.1149L357.674 75.2513C326.533 59.4291 291.882 51.049 255.94 51.049C220.018 51.049 185.385 59.4191 154.258 75.2243L20.5321 22.1149C15.9132 20.2813 10.6865 20.8532 6.57445 23.6445C2.46142 26.4359 0 31.0838 0 36.0526V66.0455C0 107.795 20.5351 148.152 54.932 174.003L55.2179 174.218C39.3807 205.371 30.9927 240.037 30.9927 275.996V305.989C30.9927 314.271 37.7071 320.985 45.9891 320.985H75.982C117.327 320.985 150.964 354.622 150.964 395.968C150.964 462.681 189.226 500.943 255.94 500.943C322.653 500.943 360.915 462.681 360.915 395.968C360.915 354.622 394.552 320.985 435.897 320.985H465.89C474.172 320.985 480.886 314.271 480.886 305.989V275.996C480.886 240.062 472.51 205.419 456.695 174.283L457.067 174.003C491.465 148.153 512 107.795 512 66.0455ZM255.94 81.0419C314.953 81.0419 367.921 107.403 403.701 148.963C390.285 143.825 375.831 141.028 360.914 141.028C315.801 141.028 276.423 166.059 255.939 202.96C235.454 166.06 196.076 141.028 150.963 141.028C136.047 141.028 121.592 143.825 108.176 148.963C143.958 107.403 196.926 81.0419 255.94 81.0419ZM29.9929 58.1444L122.47 94.8717C102.608 109.572 85.0099 127.63 70.7043 148.287C23.9263 111.201 30.5458 60.6908 29.9929 58.1444ZM450.893 290.992H435.897C378.014 290.992 330.922 338.084 330.922 395.968C330.922 419.141 325.389 437.23 314.478 449.731C304.629 461.014 290.013 467.828 270.936 470.094V432.172L296.536 406.572C302.393 400.715 302.393 391.221 296.536 385.364C290.68 379.507 281.185 379.507 275.328 385.364L255.94 404.752L236.55 385.363C230.694 379.506 221.199 379.506 215.342 385.363C209.486 391.22 209.486 400.714 215.342 406.571L240.943 432.172V470.094C221.866 467.828 207.249 461.013 197.401 449.731C186.49 437.23 180.957 419.141 180.957 395.968C180.957 338.084 133.865 290.992 75.982 290.992H60.9856V275.996C60.9856 260.149 62.9001 244.742 66.4853 229.982C79.4502 194.678 113.266 171.021 150.964 171.021C200.579 171.021 240.943 211.385 240.943 260.999C240.943 269.281 247.657 275.996 255.94 275.996C264.222 275.996 270.936 269.281 270.936 260.999C270.936 211.385 311.3 171.021 360.915 171.021C398.613 171.021 432.429 194.677 445.394 229.982C448.979 244.742 450.893 260.149 450.893 275.996V290.992ZM441.218 148.348C426.754 127.449 409.086 109.441 389.453 94.9027L482.007 58.1444C481.443 60.7367 488.101 111.246 441.218 148.348ZM369.205 217.594L339.212 232.59C331.804 236.294 328.801 245.302 332.505 252.71C336.211 260.12 345.219 263.12 352.626 259.417L382.619 244.42C390.027 240.716 393.029 231.708 389.325 224.3C385.62 216.893 376.612 213.89 369.205 217.594ZM172.667 232.59L142.674 217.594C135.267 213.89 126.259 216.893 122.554 224.3C118.85 231.708 121.853 240.716 129.26 244.42L159.253 259.417C166.671 263.126 175.674 260.108 179.374 252.71C183.078 245.302 180.075 236.294 172.667 232.59Z"
    fill="#fff" />
</svg>