<svg width="512" height="512" viewBox="0 0 512 512" fill="none" xmlns="http://www.w3.org/2000/svg">
  <path
    d="M196 226.493C187.716 226.493 181 233.209 181 241.493C181 249.777 187.716 256.493 196 256.493C204.284 256.493 211 249.777 211 241.493C211 233.209 204.284 226.493 196 226.493ZM361.025 29.3541C340.514 22.0801 318.403 25.2171 300.366 37.9591C286.763 47.5681 277.221 61.6371 273.173 77.3811C267.502 76.7971 261.772 76.4931 255.999 76.4931C250.08 76.4931 244.338 76.7721 238.811 77.3271C234.755 61.6061 225.22 47.5581 211.632 37.9591C193.593 25.2171 171.483 22.0801 150.973 29.3541C60.672 61.3761 0 146.628 0 241.493V248.004C0 266.311 7.35 283.557 20.696 296.567C33.877 309.416 51.206 316.493 69.489 316.493H91V331.493C91 422.474 165.019 496.493 256 496.493C346.981 496.493 421 422.474 421 331.493V316.493H442.511C460.795 316.493 478.123 309.417 491.304 296.567C504.65 283.557 512 266.31 512 248.004V241.493C512 146.628 451.328 61.3761 361.025 29.3541ZM91 286.493H69.489C48.084 286.493 30 268.867 30 248.004V241.493C30 159.304 82.646 85.4141 161.001 57.6281C172.206 53.6541 184.352 55.4171 194.325 62.4621C201.578 67.5851 206.794 74.9301 209.307 83.1861C139.978 103.546 91 167.995 91 241.493V286.493ZM391 331.493C391 405.932 330.439 466.493 256 466.493C181.561 466.493 121 405.932 121 331.493V241.493C121 168.31 180.18 106.493 256 106.493C330.749 106.493 391 166.717 391 241.493V331.493ZM482 248.004C482 268.867 463.916 286.493 442.511 286.493H421V241.493C421 197.592 403.905 156.13 372.864 124.744C372.825 124.705 372.786 124.666 372.747 124.627C352.811 104.91 328.806 90.8311 302.696 83.1751C305.211 74.9231 310.425 67.5841 317.675 62.4621C327.649 55.4171 339.794 53.6551 350.999 57.6281C429.354 85.4141 482 159.304 482 241.493V248.004ZM286 406.493C277.729 406.493 271 399.764 271 391.493V367.706L296.606 342.1C302.464 336.242 302.464 326.745 296.606 320.887C290.749 315.029 281.251 315.029 275.393 320.887L256 340.28L236.606 320.886C230.749 315.028 221.251 315.028 215.393 320.886C209.535 326.744 209.535 336.241 215.393 342.099L241 367.706V391.493C241 399.764 234.271 406.493 226 406.493C217.716 406.493 211 413.209 211 421.493C211 429.777 217.716 436.493 226 436.493C237.517 436.493 248.032 432.139 256 424.998C263.968 432.14 274.483 436.493 286 436.493C294.284 436.493 301 429.777 301 421.493C301 413.209 294.284 406.493 286 406.493ZM316 226.493C307.716 226.493 301 233.209 301 241.493C301 249.777 307.716 256.493 316 256.493C324.284 256.493 331 249.777 331 241.493C331 233.209 324.284 226.493 316 226.493Z"
    fill="#fff" />
</svg>