<svg width="512" height="512" viewBox="0 0 512 512" fill="none" xmlns="http://www.w3.org/2000/svg">
  <g clip-path="url(#clip0)">
    <path
      d="M500.606 361.44L461.801 351.819C473.446 328.744 480.275 302.842 480.941 275.436L500.607 270.56C508.648 268.566 513.549 260.432 511.557 252.391C509.563 244.349 501.418 239.449 493.388 241.441L479.117 244.979C475.315 218.867 465.791 193.952 450.998 171.68V76.0037C450.998 67.7198 444.282 61.0039 435.999 61.0039C402.027 61.0039 370.086 73.5367 345.104 96.4804C330.697 92.8435 315.902 91.0035 301 91.0035H211.002C196.101 91.0035 181.303 92.8435 166.897 96.4804C141.918 73.5367 109.976 61.0039 76.0035 61.0039C67.7196 61.0039 61.0037 67.7198 61.0037 76.0037V171.681C46.2009 193.969 36.674 218.903 32.8771 245.034L18.6683 241.455C10.6364 239.432 2.4825 244.303 0.459528 252.337C-1.56444 260.37 3.30749 268.523 11.3404 270.547L31.0611 275.515C31.7431 303.079 38.656 329.121 50.4348 352.293L11.5824 361.396C3.51749 363.286 -1.48945 371.356 0.399529 379.422C2.2795 387.448 10.3204 392.502 18.4253 390.604L67.2256 379.171C100.105 422.764 152.315 450.999 211.002 450.999H301C359.938 450.999 412.35 422.525 445.203 378.613L493.388 390.559C501.429 392.553 509.563 387.65 511.557 379.61C513.549 371.568 508.647 363.434 500.606 361.44ZM431.783 344.376L379.607 331.44C371.567 329.447 363.433 334.349 361.439 342.39C359.446 350.431 364.348 358.565 372.388 360.559L413.022 370.634C385.527 401.513 345.499 420.999 300.998 420.999H211C166.935 420.999 127.25 401.897 99.7832 371.543L135.605 363.15C143.67 361.26 148.676 353.19 146.788 345.124C144.898 337.058 136.827 332.052 128.762 333.941L80.6814 345.206C70.0676 326.639 63.3097 305.599 61.4997 283.182L130.432 300.546C138.481 302.573 146.622 297.682 148.641 289.664C150.664 281.631 145.793 273.478 137.76 271.454L62.1707 252.413C65.1806 228.23 74.0415 205.191 88.2743 184.938C90.0493 182.412 91.0023 179.4 91.0023 176.313V92.0705C114.016 95.3794 135.188 106.292 151.744 123.616C155.663 127.717 161.561 129.255 166.983 127.593C181.253 123.22 196.062 121.002 211.001 121.002H300.999C315.937 121.002 330.747 123.22 345.017 127.593C350.439 129.256 356.337 127.715 360.256 123.616C376.814 106.292 397.984 95.3794 420.998 92.0705V176.314C420.998 179.401 421.95 182.413 423.726 184.939C437.926 205.145 446.776 228.124 449.807 252.247L372.39 271.442C364.35 273.436 359.448 281.57 361.441 289.611C363.435 297.652 371.569 302.555 379.609 300.561L450.52 282.98C448.759 305.14 442.159 325.956 431.783 344.376ZM196 211.002C187.716 211.002 181 217.718 181 226.002C181 234.286 187.716 241.001 196 241.001C204.284 241.001 211 234.286 211 226.002C211 217.717 204.285 211.002 196 211.002ZM296.605 296.607C302.463 290.749 302.463 281.252 296.605 275.394C290.749 269.536 281.251 269.536 275.393 275.394L255.999 294.788L236.605 275.394C230.748 269.536 221.251 269.536 215.393 275.394C209.535 281.252 209.535 290.749 215.393 296.607L240.998 322.212V345.999C240.998 354.27 234.269 360.999 225.998 360.999C217.715 360.999 210.999 367.715 210.999 375.999C210.999 384.283 217.715 390.998 225.998 390.998C237.515 390.998 248.03 386.644 255.998 379.504C263.966 386.645 274.481 390.998 285.998 390.998C294.282 390.998 300.997 384.283 300.997 375.999C300.997 367.715 294.282 360.999 285.998 360.999C277.727 360.999 270.998 354.27 270.998 345.999V322.212L296.605 296.607ZM315.998 211.002C307.714 211.002 300.998 217.718 300.998 226.002C300.998 234.286 307.714 241.001 315.998 241.001C324.282 241.001 330.998 234.286 330.998 226.002C330.998 217.717 324.283 211.002 315.998 211.002Z"
      fill="#fff" />
  </g>
  <defs>
    <clipPath id="clip0">
      <rect width="512" height="512" fill="#fff" />
    </clipPath>
  </defs>
</svg>