<svg width="512" height="512" viewBox="0 0 512 512" fill="none" xmlns="http://www.w3.org/2000/svg">
  <path
    d="M316 182C307.716 182 301 188.716 301 197C301 205.284 307.716 212 316 212C324.284 212 331 205.284 331 197C331 188.716 324.284 182 316 182ZM497 122H436C416.95 122 399.548 129.151 386.305 140.894C375.68 112.372 348.178 92 316 92H301V15C301 6.716 294.284 0 286 0H226C217.716 0 211 6.716 211 15V92H196C163.822 92 136.32 112.372 125.695 140.894C112.452 129.151 95.05 122 76 122H15C6.716 122 0 128.716 0 137C0 178.355 33.645 212 75 212H121V257C121 304.101 128.919 331.817 136.577 358.621C143.994 384.581 151 409.101 151 452C151 485.084 177.916 512 211 512H301C334.084 512 361 485.084 361 452C361 409.101 368.006 384.581 375.423 358.621C383.081 331.817 391 304.101 391 257V212H437C478.355 212 512 178.355 512 137C512 128.716 505.284 122 497 122ZM75 182C55.443 182 38.761 169.461 32.57 152H76C95.557 152 112.239 164.539 118.43 182H75ZM241 30H271V122H241V30ZM301 482H211C194.458 482 181 468.542 181 452C181 435.458 194.458 422 211 422H301C317.542 422 331 435.458 331 452C331 468.542 317.542 482 301 482ZM361 242H322.109C313.825 242 307.109 248.716 307.109 257C307.109 265.284 313.825 272 322.109 272H360.694C360.226 283.171 359.241 293.011 357.898 302H316C307.716 302 301 308.716 301 317C301 325.284 307.716 332 316 332H351.666C350.05 338.219 348.326 344.26 346.577 350.379C342.084 366.105 337.504 382.15 334.483 402.235C324.913 395.776 313.389 392 301 392H271V347C271 338.716 264.284 332 256 332C247.716 332 241 338.716 241 347V392H211C198.611 392 187.087 395.776 177.517 402.235C174.496 382.151 169.916 366.105 165.423 350.379C163.675 344.26 161.951 338.219 160.334 332H196C204.284 332 211 325.284 211 317C211 308.716 204.284 302 196 302H154.101C152.758 293.011 151.773 283.171 151.305 272H196C204.284 272 211 265.284 211 257C211 248.716 204.284 242 196 242H151V167C151 142.187 171.187 122 196 122H211V137C211 145.284 217.716 152 226 152H286C294.284 152 301 145.284 301 137V122H316C340.813 122 361 142.187 361 167V242ZM437 182H393.57C399.76 164.539 416.443 152 436 152H479.43C473.239 169.461 456.557 182 437 182ZM196 182C187.716 182 181 188.716 181 197C181 205.284 187.716 212 196 212C204.284 212 211 205.284 211 197C211 188.716 204.284 182 196 182Z"
    fill="#fff" />
</svg>