<svg width="512" height="512" viewBox="0 0 512 512" fill="none" xmlns="http://www.w3.org/2000/svg">
  <path
    d="M196 212C187.716 212 181 218.716 181 227C181 235.284 187.716 242 196 242C204.284 242 211 235.284 211 227C211 218.716 204.284 212 196 212ZM497 152H436C416.95 152 399.548 159.151 386.305 170.894C377.376 146.925 356.528 128.712 331 123.509V87.42C348.459 81.228 361 64.555 361 45C361 20.187 340.813 0 316 0C291.187 0 271 20.187 271 45C271 64.555 283.541 81.228 301 87.42V122H211V87.42C228.459 81.228 241 64.555 241 45C241 20.187 220.813 0 196 0C171.187 0 151 20.187 151 45C151 64.555 163.541 81.228 181 87.42V123.509C155.472 128.712 134.624 146.924 125.695 170.894C112.452 159.151 95.05 152 76 152H15C6.716 152 0 158.716 0 167C0 208.355 33.645 242 75 242H121V257C121 306.542 138.276 332.456 153.52 355.321C168.265 377.439 181 396.542 181 437V452C181 485.084 207.916 512 241 512H271C304.084 512 331 485.084 331 452V437C331 396.542 343.735 377.439 358.48 355.321C373.724 332.456 391 306.542 391 257V242H437C478.355 242 512 208.355 512 167C512 158.716 505.284 152 497 152ZM75 212C55.443 212 38.761 199.461 32.57 182H76C95.557 182 112.239 194.539 118.43 212H75ZM316 30C324.271 30 331 36.729 331 45C331 53.271 324.271 60 316 60C307.729 60 301 53.271 301 45C301 36.729 307.729 30 316 30ZM196 30C204.271 30 211 36.729 211 45C211 53.271 204.271 60 196 60C187.729 60 181 53.271 181 45C181 36.729 187.729 30 196 30ZM271 482H241C224.458 482 211 468.542 211 452C211 435.458 224.458 422 241 422H271C287.542 422 301 435.458 301 452C301 468.542 287.542 482 271 482ZM361 257C361 297.458 348.265 316.561 333.52 338.679C322.329 355.465 310.052 373.908 304.31 402.123C294.773 395.734 283.316 392 271 392H241C228.684 392 217.227 395.734 207.691 402.124C201.949 373.908 189.671 355.465 178.481 338.68C163.735 316.561 151 297.458 151 257V197C151 172.187 171.187 152 196 152H316C340.813 152 361 172.187 361 197V257ZM437 212H393.57C399.76 194.539 416.443 182 436 182H479.43C473.239 199.461 456.557 212 437 212ZM316 212C307.716 212 301 218.716 301 227C301 235.284 307.716 242 316 242C324.284 242 331 235.284 331 227C331 218.716 324.284 212 316 212Z"
    fill="#fff" />
</svg>