<svg width="512" height="512" viewBox="0 0 512 512" fill="none" xmlns="http://www.w3.org/2000/svg">
  <path
    d="M196 271C187.716 271 181 277.716 181 286C181 294.284 187.716 301 196 301C204.284 301 211 294.284 211 286C211 277.716 204.284 271 196 271ZM512 15C512 6.716 505.284 0 497 0C423.179 0 354.944 42.791 321.876 108.148C301.854 96.899 279.41 91 256 91C232.59 91 210.146 96.899 190.125 108.148C157.057 42.791 88.821 0 15 0C6.716 0 0 6.716 0 15C0 97.566 51.942 168.329 123.758 197.154L92.794 303.392C85.733 327.607 100.006 352.76 124.077 359.384C131.656 387.472 143.41 431.922 152.843 466.827C159.588 493.433 183.482 512 211 512H301C328.517 512 352.41 493.432 359.156 466.83C368.589 431.924 380.344 387.473 387.923 359.385C411.955 352.772 426.278 327.65 419.206 303.394L388.242 197.155C459.95 168.373 512 97.685 512 15ZM30.772 30.77C88.671 36.434 140.5 72.917 165.415 125.932C152.137 137.99 141.316 152.657 133.713 168.83C76.881 145.601 36.743 91.679 30.772 30.77ZM390.405 311.788C393.203 321.389 385.969 331 376 331C369.321 331 363.286 335.563 361.52 342.087C351.96 377.464 330.117 459.298 330.095 459.385C326.752 472.7 314.788 482 301 482H271V442.213L296.606 416.607C302.464 410.749 302.464 401.252 296.606 395.394C290.749 389.536 281.251 389.536 275.393 395.394L256 414.787L236.606 395.393C230.749 389.535 221.251 389.535 215.393 395.393C209.535 401.251 209.535 410.748 215.393 416.606L241 442.213V482H211C197.212 482 185.249 472.7 181.905 459.385C181.884 459.298 160.04 377.465 150.48 342.087C148.71 335.547 142.665 331 136 331C126.039 331 118.793 321.398 121.596 311.788L155.18 196.559C168.146 152.071 209.605 121 256 121C302.396 121 343.854 152.071 356.82 196.559L390.405 311.788ZM378.288 168.83C370.685 152.657 359.864 137.99 346.586 125.932C371.5 72.917 423.329 36.434 481.228 30.77C475.257 91.679 435.119 145.601 378.288 168.83ZM316 271C307.716 271 301 277.716 301 286C301 294.284 307.716 301 316 301C324.284 301 331 294.284 331 286C331 277.716 324.284 271 316 271Z"
    fill="#fff" />
</svg>