<svg width="512" height="512" viewBox="0 0 512 512" fill="none" xmlns="http://www.w3.org/2000/svg">
  <path
    d="M316 300C307.716 300 301 306.716 301 315C301 323.284 307.716 330 316 330C324.284 330 331 323.284 331 315C331 306.716 324.284 300 316 300ZM437 240H391V224.74C397.075 220.122 402.489 214.562 406.993 208.191C449.362 200.568 481 163.878 481 120C481 76.081 449.323 39.425 406.993 31.809C393.001 12.017 370.269 0 346 0C329.7 0 313.929 5.444 301 15.27C288.071 5.444 272.3 0 256 0C239.7 0 223.929 5.444 211 15.27C198.071 5.444 182.3 0 166 0C141.732 0 119 12.017 105.007 31.809C85.711 35.281 68.056 44.916 54.676 59.41C39.408 75.949 31 97.467 31 120C31 142.532 39.408 164.05 54.675 180.589C68.055 195.084 85.711 204.719 105.007 208.191C109.511 214.562 114.925 220.122 121 224.74V240H75C33.645 240 0 273.645 0 315C0 323.284 6.716 330 15 330H76C92.871 330 108.456 324.397 121 314.959V377C121 451.439 181.561 512 256 512C330.439 512 391 451.439 391 377V314.959C403.544 324.397 419.129 330 436 330H497C505.284 330 512 323.284 512 315C512 273.645 478.355 240 437 240ZM76 300H32.57C38.761 282.539 55.444 270 75 270H118.43C112.239 287.461 95.556 300 76 300ZM361 377C361 429.805 321.816 473.623 271 480.924V443.213L296.606 417.607C302.464 411.749 302.464 402.252 296.606 396.394C290.749 390.536 281.251 390.536 275.393 396.394L256 415.787L236.606 396.393C230.749 390.535 221.251 390.535 215.393 396.393C209.535 402.251 209.535 411.748 215.393 417.606L241 443.213V480.924C190.184 473.623 151 429.805 151 377V238.446C172.383 242.9 194.086 237.585 211 224.728C223.929 234.556 239.701 240 256 240C272.3 240 288.071 234.556 301 224.729C317.902 237.576 339.598 242.905 361 238.447V377ZM384.999 186.919C376.97 201.156 362.026 210 346 210C333.039 210 321.068 204.472 312.293 194.433C309.445 191.174 305.328 189.305 301 189.305C296.672 189.305 292.555 191.175 289.706 194.433C280.932 204.472 268.962 210 256 210C243.039 210 231.068 204.472 222.293 194.433C219.445 191.174 215.328 189.305 211 189.305C206.672 189.305 202.555 191.175 199.706 194.433C190.932 204.472 178.962 210 166 210C149.974 210 135.031 201.156 127.001 186.919C124.59 182.644 120.239 179.818 115.353 179.355C84.367 176.415 61 150.898 61 120C61 89.102 84.367 63.585 115.353 60.645C120.24 60.181 124.59 57.356 127.001 53.081C135.031 38.844 149.974 30 166 30C178.962 30 190.933 35.528 199.706 45.564C202.555 48.823 206.672 50.692 211 50.692C215.328 50.692 219.445 48.823 222.293 45.564C231.067 35.528 243.038 30 256 30C268.962 30 280.933 35.528 289.706 45.564C292.555 48.823 296.672 50.692 301 50.692C305.328 50.692 309.445 48.823 312.293 45.564C321.067 35.528 333.038 30 346 30C362.026 30 376.97 38.844 384.999 53.081C387.41 57.357 391.761 60.182 396.647 60.645C427.634 63.585 451 89.103 451 120C451 150.898 427.634 176.415 396.647 179.355C391.761 179.819 387.41 182.644 384.999 186.919ZM436 300C416.444 300 399.761 287.461 393.57 270H437C456.556 270 473.239 282.539 479.43 300H436ZM196 300C187.716 300 181 306.716 181 315C181 323.284 187.716 330 196 330C204.284 330 211 323.284 211 315C211 306.716 204.284 300 196 300Z"
    fill="#fff" />
</svg>