<svg width="512" height="512" viewBox="0 0 512 512" fill="none" xmlns="http://www.w3.org/2000/svg">
  <path
    d="M196 211.5C204.284 211.5 211 204.784 211 196.5C211 188.216 204.284 181.5 196 181.5C187.716 181.5 181 188.216 181 196.5C181 204.784 187.716 211.5 196 211.5ZM316 211.5C324.284 211.5 331 204.784 331 196.5C331 188.216 324.284 181.5 316 181.5C307.716 181.5 301 188.216 301 196.5C301 204.784 307.716 211.5 316 211.5ZM327.96 291.593C308.524 278.636 282.969 271.5 256 271.5C229.031 271.5 203.476 278.636 184.04 291.593C162.734 305.797 151 325.297 151 346.5C151 367.703 162.734 387.203 184.04 401.407C203.476 414.364 229.031 421.5 256 421.5C282.969 421.5 308.524 414.364 327.96 401.407C349.267 387.203 361 367.703 361 346.5C361 325.297 349.267 305.797 327.96 291.593ZM256 391.5C215.346 391.5 181 370.893 181 346.5C181 322.107 215.346 301.5 256 301.5C296.654 301.5 331 322.107 331 346.5C331 370.893 296.654 391.5 256 391.5ZM497 30.5H422C395.758 30.5 370.648 42.304 353.393 62.063C323.73 42.927 291.019 31.5 256 31.5C221.044 31.5 188.328 42.888 158.607 62.063C141.351 42.304 116.242 30.5 90 30.5H15C6.716 30.5 0 37.216 0 45.5V120.5C0 154.286 19.464 185.424 48.861 201.022C37.38 230.202 31 259.774 31 286.5C31 399.269 137.531 481.5 256 481.5C375.085 481.5 481 398.751 481 286.5C481 259.774 474.62 230.202 463.139 201.022C492.536 185.424 512 154.286 512 120.5V45.5C512 37.216 505.284 30.5 497 30.5ZM30 120.5V60.5H90C106.467 60.5 122.789 67.892 134.345 80.018C120.703 91.499 107.808 104.811 95.788 119.859C82.47 136.531 70.845 154.743 61.248 173.564C42.602 162.776 30 142.134 30 120.5ZM256 451.5C148.477 451.5 61 377.481 61 286.5C61 240.223 83.312 183.544 119.227 138.583C153.487 95.694 201.464 61.5 256 61.5C310.51 61.5 358.489 95.664 392.772 138.583C428.688 183.544 451 240.223 451 286.5C451 377.481 363.523 451.5 256 451.5ZM482 120.5C482 142.134 469.398 162.776 450.752 173.564C441.155 154.743 429.53 136.531 416.212 119.859C404.191 104.811 391.297 91.499 377.655 80.018C389.21 67.892 405.532 60.5 422 60.5H482V120.5ZM226 331.5C217.716 331.5 211 338.216 211 346.5C211 354.784 217.716 361.5 226 361.5C234.284 361.5 241 354.784 241 346.5C241 338.216 234.284 331.5 226 331.5ZM286 331.5C277.716 331.5 271 338.216 271 346.5C271 354.784 277.716 361.5 286 361.5C294.284 361.5 301 354.784 301 346.5C301 338.216 294.284 331.5 286 331.5Z"
    fill="#fff" />
</svg>