<svg width="512" height="512" viewBox="0 0 512 512" fill="none" xmlns="http://www.w3.org/2000/svg">
  <g clip-path="url(#clip0)">
    <path
      d="M345.934 211.034C354.212 211.034 360.923 204.323 360.923 196.045C360.923 187.767 354.212 181.056 345.934 181.056C337.656 181.056 330.945 187.767 330.945 196.045C330.945 204.323 337.656 211.034 345.934 211.034ZM481.766 250.487C481.12 223.897 475.812 198.436 466.629 174.885C494.624 162.75 511.812 135.412 511.812 106.111C511.812 64.7861 478.192 31.166 436.868 31.166C411.415 31.166 388.115 44.1004 374.439 64.6512C339.982 43.4339 299.406 31.166 256.001 31.166C212.597 31.166 172.02 43.4339 137.563 64.6522C123.887 44.1014 100.587 31.167 75.1343 31.167C33.8099 31.167 0.189787 64.7871 0.189787 106.112C0.189787 135.458 17.421 162.77 45.3723 174.886C36.1901 198.437 30.8821 223.897 30.2355 250.488C-2.71406 291.738 -9.49105 352.389 13.6468 403.352C34.8581 450.069 78.197 480.834 135.09 480.834H376.911C433.714 480.834 477.104 450.157 498.351 403.355C521.491 352.39 514.716 291.738 481.766 250.487ZM436.867 61.1448C461.661 61.1448 481.833 81.3169 481.833 106.112C481.833 124.855 470.547 141.052 453.886 147.779C439.888 122.512 421.157 100.198 398.883 82.0314C407.01 69.2388 421.265 61.1448 436.867 61.1448ZM270.989 61.7104C367.035 68.976 443.942 145.466 451.282 241.012H375.912C318.057 241.012 270.989 193.944 270.989 136.089V61.7104ZM30.1676 106.112C30.1676 81.3169 50.3397 61.1448 75.1343 61.1448C90.7358 61.1448 104.991 69.2388 113.118 82.0304C90.8437 100.198 72.1115 122.511 58.1149 147.778C41.4542 141.052 30.1676 124.854 30.1676 106.112ZM471.055 390.963C453.774 429.027 419.459 450.856 376.911 450.856H135.09C92.5414 450.856 58.2258 429.025 40.9426 390.959C22.0526 349.351 28.4249 297.912 56.4411 265.866C58.8294 263.134 60.1454 259.629 60.1454 256.001C60.1454 153.573 139.992 69.3517 241.012 61.7104V136.089C241.012 210.473 301.528 270.99 375.912 270.99H459.709C484.152 303.206 488.973 351.5 471.055 390.963ZM315.956 330.945H285.978C279.56 330.945 274.087 326.882 271.955 321.199L296.577 296.577C302.431 290.723 302.431 281.233 296.577 275.379C290.725 269.526 281.234 269.526 275.38 275.379L256 294.759L236.621 275.379C230.768 269.526 221.277 269.526 215.423 275.379C209.57 281.233 209.57 290.723 215.423 296.577L240.046 321.199C237.914 326.882 232.441 330.945 226.023 330.945H196.045C187.767 330.945 181.056 337.656 181.056 345.934C181.056 354.212 187.767 360.923 196.045 360.923H211.034V405.89C211.034 414.168 217.745 420.879 226.023 420.879H285.978C294.256 420.879 300.967 414.168 300.967 405.89V360.923H315.956C324.234 360.923 330.945 354.212 330.945 345.934C330.945 337.656 324.234 330.945 315.956 330.945ZM270.989 390.901H241.012V358.345C246.594 356.364 251.674 353.315 256 349.436C260.327 353.315 265.406 356.364 270.989 358.345V390.901ZM166.067 181.056C157.789 181.056 151.078 187.767 151.078 196.045C151.078 204.323 157.789 211.034 166.067 211.034C174.345 211.034 181.056 204.323 181.056 196.045C181.056 187.766 174.345 181.056 166.067 181.056Z"
      fill="#fff" />
  </g>
  <defs>
    <clipPath id="clip0">
      <rect width="512" height="512" fill="#fff" />
    </clipPath>
  </defs>
</svg>