<svg width="512" height="512" viewBox="0 0 512 512" fill="none" xmlns="http://www.w3.org/2000/svg">
  <g clip-path="url(#clip0)">
    <path
      d="M172.705 213.796L142.705 198.796C135.299 195.093 126.287 198.094 122.581 205.504C118.876 212.914 121.879 221.924 129.289 225.629L159.289 240.629C166.708 244.338 175.713 241.32 179.413 233.921C183.118 226.511 180.115 217.501 172.705 213.796ZM369.291 198.796L339.291 213.796C331.881 217.501 328.878 226.511 332.583 233.921C336.281 241.318 345.285 244.339 352.707 240.629L382.707 225.629C390.117 221.924 393.12 212.914 389.415 205.504C385.711 198.095 376.702 195.091 369.291 198.796ZM510.115 249.932C509.651 249.095 499.037 230.057 481.001 204.37V47.2101C481.001 38.926 474.285 32.21 466.001 32.21C422.746 32.21 382.183 53.4652 356.936 88.5445C324.026 71.0603 290.135 62.2103 255.998 62.2103C221.861 62.2103 187.971 71.0603 155.061 88.5445C129.815 53.4662 89.2513 32.21 45.9958 32.21C37.7118 32.21 30.9957 38.926 30.9957 47.2101V204.369C12.9605 230.057 2.3454 249.094 1.8814 249.931C0.600388 252.268 -0.0176182 254.771 0.000382003 257.314C0.0203822 260.077 0.79639 262.728 2.1714 264.992C3.14741 266.6 26.5506 304.813 69.1901 343.342C107.53 377.986 152.741 405.061 203.812 416.424C205.911 424.015 207.569 431.626 208.755 439.182C212.447 462.711 232.318 479.788 255.998 479.788C279.678 479.788 299.548 462.711 303.24 439.183C304.426 431.627 306.084 424.015 308.184 416.424C359.167 405.08 404.387 378.058 442.807 343.342C485.446 304.813 508.849 266.6 509.825 264.992C511.265 262.617 512.001 259.883 512.001 257.212C512 254.776 511.354 252.16 510.115 249.932ZM89.9353 321.653C70.0811 303.799 54.5789 285.784 44.0258 272.212H45.9968C110.29 272.212 163.811 322.578 191.208 382.091C156.224 370.992 122.342 350.797 89.9353 321.653ZM273.604 434.531C272.216 443.372 264.812 449.789 255.999 449.789C247.186 449.789 239.781 443.372 238.394 434.531C237.705 430.139 236.877 425.746 235.922 421.361C242.599 421.926 249.293 422.215 255.999 422.215C262.705 422.215 269.399 421.926 276.077 421.361C275.12 425.746 274.293 430.139 273.604 434.531ZM422.694 321.084C390.098 350.537 356.003 370.928 320.787 382.099C348.183 322.583 401.704 272.212 466 272.212H467.995C457.582 285.609 442.316 303.353 422.694 321.084ZM466 242.212C382.814 242.212 313.604 311.41 285.098 390.19C275.467 391.527 265.765 392.213 255.998 392.213C246.231 392.213 236.53 391.527 226.898 390.189C198.335 311.253 129.03 242.212 45.9958 242.212H41.6918C46.2138 235.187 51.7629 226.886 58.208 217.849C60.021 215.307 60.996 212.262 60.996 209.139V63.3183C92.5673 68.0053 120.851 87.2895 137.043 115.971C141.194 123.325 150.616 125.812 157.859 121.437C189.974 102.044 222.993 92.2095 255.998 92.2095C289.003 92.2095 322.021 102.043 354.137 121.437C361.366 125.804 370.795 123.337 374.953 115.971C391.144 87.2885 419.428 68.0043 451 63.3183V209.14C451 212.263 451.975 215.307 453.788 217.85C460.22 226.869 465.772 235.176 470.301 242.213H466V242.212Z"
      fill="#fff" />
  </g>
  <defs>
    <clipPath id="clip0">
      <rect width="512" height="512" fill="#fff" />
    </clipPath>
  </defs>
</svg>