<svg width="512" height="512" viewBox="0 0 512 512" fill="none" xmlns="http://www.w3.org/2000/svg">
  <g clip-path="url(#clip0)">
    <path
      d="M166 215C174.284 215 181 208.284 181 200C181 191.716 174.284 185 166 185C157.716 185 151 191.716 151 200C151 208.284 157.716 215 166 215ZM346 215C354.284 215 361 208.284 361 200C361 191.716 354.284 185 346 185C337.716 185 331 191.716 331 200C331 208.284 337.716 215 346 215ZM166 305C157.716 305 151 311.716 151 320C151 328.284 157.716 335 166 335C174.271 335 181 341.729 181 350C181 358.284 187.716 365 196 365C204.284 365 211 358.284 211 350C211 325.187 190.813 305 166 305ZM408.204 265.464L415.408 229.446C422.128 195.847 418.066 161.107 404.009 130.246L426.974 113.023C442.019 101.741 451 83.788 451 65C451 31.916 424.084 5 391 5C372.213 5 354.261 13.982 342.978 29.026L326.091 51.542C302.716 42.952 276.512 46.308 256.001 60.53C235.489 46.308 209.284 42.952 185.91 51.542L169.023 29.026C157.739 13.982 139.787 5 121 5C87.916 5 61 31.916 61 65C61 83.788 69.982 101.74 85.027 113.023L107.991 130.246C93.934 161.107 89.872 195.847 96.592 229.446L103.796 265.464C77.859 284.601 61 315.367 61 350C61 391.802 85.557 427.973 121 444.855V502C121 510.284 127.716 517 136 517H196C204.284 517 211 510.284 211 502V455H301V502C301 510.284 307.716 517 316 517H376C384.284 517 391 510.284 391 502V444.855C426.443 427.973 451 391.802 451 350C451 315.367 434.142 284.601 408.204 265.464ZM103.007 89.008C95.376 83.276 91 74.527 91 65C91 48.458 104.458 35 121 35C130.535 35 139.291 39.383 145.022 47.026L167.203 76.601C170.83 84.703 180.78 87.976 188.543 83.372C206.881 72.499 230.259 75.472 245.393 90.607C251.25 96.465 260.748 96.465 266.606 90.607C281.74 75.474 305.117 72.499 323.456 83.372C331.198 87.962 341.16 84.729 344.797 76.6L366.978 47.026C372.71 39.383 381.466 35 391 35C407.542 35 421 48.458 421 65C421 82.919 406.713 90.334 405.633 91.529C405.623 91.537 377.756 112.436 377.756 112.436L377.551 112.551C370.324 116.594 367.739 125.741 371.787 132.971C387.145 160.394 392.189 192.566 385.99 223.563L380.534 250.842C369.714 247.062 358.094 245 346 245H166C153.906 245 142.286 247.062 131.465 250.842L126.009 223.563C119.81 192.566 124.854 160.394 140.212 132.971C144.258 125.746 141.68 116.599 134.451 112.552L134.245 112.437C134.037 112.281 102.888 88.919 103.007 89.008ZM181 487H151V453.924C155.901 454.628 160.907 455 166 455H181V487ZM361 487H331V455H346C351.093 455 356.099 454.628 361 453.924V487ZM346 425H166C124.645 425 91 391.355 91 350C91 308.645 124.645 275 166 275H346C387.355 275 421 308.645 421 350C421 391.355 387.355 425 346 425ZM346 305C321.187 305 301 325.187 301 350C301 358.284 307.716 365 316 365C324.284 365 331 358.284 331 350C331 341.729 337.729 335 346 335C354.284 335 361 328.284 361 320C361 311.716 354.284 305 346 305Z"
      fill="#fff" />
  </g>
  <defs>
    <clipPath id="clip0">
      <rect width="512" height="512" fill="#fff" />
    </clipPath>
  </defs>
</svg>