<svg width="512" height="512" viewBox="0 0 512 512" fill="none" xmlns="http://www.w3.org/2000/svg">
  <path
    d="M165.997 225.999C157.713 225.999 150.997 232.715 150.997 240.999C150.997 249.284 157.713 256 165.997 256C174.282 256 180.998 249.284 180.998 240.999C180.998 232.715 174.282 225.999 165.997 225.999ZM510.122 263.719C509.657 262.882 499.043 243.844 481.006 218.156V60.9945C481.006 52.7103 474.29 45.9941 466.006 45.9941C422.749 45.9941 382.185 67.2497 356.938 102.33C324.028 84.8452 290.138 75.995 256 75.995C221.862 75.995 187.972 84.8452 155.062 102.33C129.814 67.2497 89.2504 45.9941 45.9942 45.9941C37.71 45.9941 30.9938 52.7103 30.9938 60.9945V218.156C12.9573 243.845 2.343 262.882 1.87798 263.719C0.658949 265.914 0.0269319 268.44 0.00093122 270.838C-0.0270695 273.266 0.577947 275.733 1.60598 277.767C2.574 279.682 25.7876 325.163 68.2178 371.171C118.487 425.681 182.168 466.005 256 466.005C329.855 466.005 393.535 425.656 443.782 371.171C486.212 325.163 509.426 279.681 510.394 277.767C511.396 275.783 512.029 273.319 511.999 270.838C511.972 268.451 511.344 265.914 510.122 263.719ZM34.7729 275.701C100.557 231.034 141.132 203.484 141.232 203.415C147.43 199.168 157.022 195.998 165.996 195.998C190.81 195.998 210.998 216.186 210.998 240.999C210.998 256.085 203.49 270.096 190.916 278.479L87.2923 347.56C61.6486 319.115 43.6731 290.898 34.7729 275.701ZM271 435.323V397.217L296.607 371.61C302.465 365.752 302.465 356.255 296.607 350.396C290.75 344.538 281.252 344.538 275.393 350.396L255.999 369.79L236.604 350.396C230.747 344.538 221.249 344.538 215.391 350.396C209.533 356.255 209.533 365.752 215.391 371.61L240.997 397.217V435.345C195.201 431.388 150.809 409.27 108.61 369.405L207.557 303.44C228.496 289.481 240.997 266.138 240.997 240.998C240.997 199.642 207.352 165.996 165.995 165.996C147.742 165.996 128.943 174.099 121.762 180.371L60.9926 221.633V77.103C92.5645 81.7901 120.849 101.075 137.041 129.756C139.034 133.288 142.372 135.861 146.293 136.891C150.216 137.922 154.386 137.319 157.857 135.223C189.973 115.829 222.992 105.995 255.998 105.995C289.004 105.995 322.022 115.828 354.139 135.223C357.609 137.319 361.782 137.921 365.703 136.891C369.624 135.861 372.962 133.288 374.955 129.756C391.147 101.075 419.431 81.7891 451.003 77.103V221.634L390.234 180.372C382.997 174.052 364.234 165.997 346 165.997C304.644 165.997 270.998 199.643 270.998 240.999C270.998 266.138 283.5 289.481 304.439 303.441L403.302 369.349C368.66 401.965 323.858 430.659 271 435.323ZM424.632 347.511L321.082 278.479C308.507 270.095 301 256.085 301 240.999C301 216.186 321.188 195.998 346.001 195.998C354.025 195.998 363.587 198.57 370.913 203.515L477.217 275.695C468.321 290.854 450.36 318.984 424.632 347.511ZM346.002 225.999C337.718 225.999 331.002 232.715 331.002 240.999C331.002 249.284 337.718 256 346.002 256C354.287 256 361.003 249.284 361.003 240.999C361.003 232.715 354.287 225.999 346.002 225.999Z"
    fill="#fff" />
</svg>