<svg width="512" height="512" viewBox="0 0 512 512" fill="none" xmlns="http://www.w3.org/2000/svg">
  <path
    d="M512 105C512 47.103 464.448 0 406 0C351.018 0 305.777 42.48 301.359 96.342C286.942 92.214 271.725 90 256 90C240.275 90 225.058 92.214 210.641 96.342C206.223 42.48 160.981 0 106 0C47.551 0 0 47.103 0 105C0 160.009 42.927 205.268 97.34 209.648C93.213 224.063 91 239.277 91 255C91 270.384 93.109 285.492 97.209 300H76C67.716 300 61 306.716 61 315C61 323.284 67.716 330 76 330H108.989C116.584 344.842 122.554 351.702 140.158 377.802L101.257 390.769C93.398 393.389 89.15 401.884 91.77 409.743C94.395 417.617 102.899 421.845 110.744 419.23L157.829 403.535C196.32 459.588 218.485 491.879 219.056 492.696C227.473 504.784 241.284 512 256 512C270.716 512 284.527 504.784 293.001 492.615C293.472 491.94 294.999 489.707 354.172 403.535L401.257 419.23C409.103 421.845 417.606 417.615 420.231 409.743C422.85 401.884 418.603 393.389 410.744 390.769L371.843 377.802C389.545 351.559 395.45 344.779 403.012 329.999H436C444.284 329.999 451 323.283 451 314.999C451 306.715 444.284 299.999 436 299.999H414.791C418.891 285.491 421 270.383 421 254.999C421 239.276 418.787 224.061 414.66 209.647C469.073 205.268 512 160.009 512 105ZM106 180C64.093 180 30 146.355 30 105C30 63.645 64.093 30 106 30C147.355 30 181 63.645 181 105C181 106.029 180.973 107.058 180.932 108.086C150.118 123.895 124.896 149.117 109.087 179.931C108.058 179.973 107.028 180 106 180ZM268.327 475.552C265.515 479.589 260.907 482 256 482C251.093 482 246.485 479.589 243.729 475.633L232.169 458.799C239.225 454.369 247.392 452 255.999 452C264.607 452 272.773 454.369 279.829 458.799L268.327 475.552ZM383.321 300H346C337.716 300 331 306.716 331 315C331 323.284 337.716 330 346 330H368.238C365.468 334.141 373.986 321.639 342.229 367.931L320.743 360.769C312.885 358.15 304.389 362.397 301.769 370.256C299.15 378.115 303.397 386.61 311.256 389.23L324.557 393.664L296.791 434.099C284.737 426.297 270.559 422 256 422C241.441 422 227.263 426.297 215.208 434.099L187.442 393.664L200.743 389.23C208.602 386.61 212.85 378.115 210.23 370.256C207.61 362.397 199.117 358.149 191.256 360.769L169.77 367.931C138.34 322.115 146.808 334.549 143.76 330H166C174.284 330 181 323.284 181 315C181 306.716 174.284 300 166 300H128.674C123.613 285.677 121 270.511 121 255C121 180.561 181.561 120 256 120C330.439 120 391 180.561 391 255C391 270.506 388.388 285.667 383.321 300ZM406 180C404.972 180 403.942 179.973 402.914 179.932C387.105 149.118 361.883 123.896 331.069 108.087C331.027 107.058 331 106.028 331 105C331 63.645 364.645 30 406 30C447.906 30 482 63.645 482 105C482 146.355 447.906 180 406 180ZM196 240C187.716 240 181 246.716 181 255C181 263.284 187.716 270 196 270C204.284 270 211 263.284 211 255C211 246.716 204.284 240 196 240ZM316 240C307.716 240 301 246.716 301 255C301 263.284 307.716 270 316 270C324.284 270 331 263.284 331 255C331 246.716 324.284 240 316 240Z"
    fill="#fff" />
</svg>