<svg width="512" height="512" viewBox="0 0 512 512" fill="none" xmlns="http://www.w3.org/2000/svg">
  <g clip-path="url(#clip0)">
    <path
      d="M202.708 227.583L172.708 212.583C165.301 208.88 156.289 211.881 152.584 219.291C148.879 226.701 151.882 235.711 159.292 239.416L189.292 254.416C196.711 258.125 205.716 255.107 209.416 247.708C213.121 240.299 210.118 231.288 202.708 227.583ZM339.292 212.583L309.292 227.583C301.882 231.288 298.879 240.298 302.584 247.708C306.282 255.105 315.286 258.126 322.708 254.416L352.708 239.416C360.118 235.711 363.121 226.701 359.416 219.291C355.712 211.882 346.703 208.879 339.292 212.583ZM296.606 341.607C302.464 335.749 302.464 326.252 296.606 320.394C290.749 314.536 281.251 314.536 275.393 320.394L256 339.787L236.606 320.393C230.749 314.535 221.251 314.535 215.393 320.393C209.535 326.251 209.535 335.748 215.393 341.606L241 367.213V395.558C231.406 398.137 222.606 403.18 215.394 410.393C209.536 416.251 209.536 425.748 215.394 431.606C221.251 437.464 230.749 437.464 236.607 431.606C247.3 420.913 264.701 420.913 275.394 431.606C281.251 437.463 290.749 437.464 296.607 431.606C302.465 425.748 302.465 416.251 296.607 410.393C289.394 403.18 280.595 398.137 271.001 395.558V367.213L296.606 341.607ZM512 91C512 49.645 478.355 16 437 16C413.048 16 390.801 27.494 376.822 46.242C340.812 26.958 299.668 16 256 16C212.332 16 171.188 26.958 135.178 46.242C121.2 27.494 98.952 16 75 16C33.645 16 0 49.645 0 91C0 114.903 11.446 137.11 30.125 151.094C10.913 186.858 0 227.681 0 271V361C0 367.067 3.654 372.537 9.26 374.858C14.864 377.179 21.318 375.897 25.607 371.606L38.445 358.768L60.77 425.743C62.415 430.675 66.495 434.404 71.554 435.598C76.633 436.798 81.946 435.266 85.607 431.606L105 412.213L120.301 427.513C123.615 465.828 155.841 496 195 496H317C356.159 496 388.385 465.828 391.699 427.514L407 412.214L426.394 431.607C430.063 435.277 435.38 436.796 440.447 435.599C445.507 434.405 449.587 430.676 451.231 425.744L473.556 358.769L486.394 371.607C490.684 375.899 497.138 377.18 502.741 374.859C508.346 372.537 512.001 367.067 512.001 361.001V271.001C512.001 227.682 501.088 186.859 481.876 151.095C500.554 137.11 512 114.903 512 91ZM437 46C461.813 46 482 66.187 482 91C482 104.421 475.983 116.946 466.027 125.378C448.764 100.748 427.255 79.284 402.56 62.047C410.993 52.047 423.547 46 437 46ZM30 91C30 66.187 50.187 46 75 46C88.454 46 101.008 52.047 109.44 62.047C84.745 79.285 63.236 100.749 45.972 125.379C36.017 116.946 30 104.421 30 91ZM482 271V324.787L477.606 320.393C473.929 316.717 468.611 315.207 463.553 316.401C458.493 317.595 454.413 321.324 452.769 326.256L430.444 393.231L417.606 380.393C414.794 377.581 410.979 376 407 376C403.021 376 399.206 377.581 396.394 380.394L392 384.787V301C392 292.716 385.284 286 377 286C368.716 286 362 292.716 362 301V421.003C361.998 445.815 341.813 466 317 466H195C170.187 466 150.002 445.815 150 421.003C150 421 150 301 150 301C150 292.716 143.284 286 135 286C126.716 286 120 292.716 120 301V384.787L115.606 380.393C109.752 374.538 100.249 374.536 94.393 380.393L81.555 393.231L59.23 326.257C57.585 321.325 53.505 317.596 48.446 316.402C43.389 315.207 38.07 316.718 34.393 320.394L30 324.787V271C30 151.954 123.351 54.222 241 46.508V76.57C220.005 78.165 199.596 83.116 180.149 91.355C172.521 94.587 168.958 103.39 172.189 111.018C175.42 118.646 184.222 122.21 191.852 118.978C207.575 112.317 224.051 108.207 240.999 106.682V136.846C228.187 138.269 215.552 141.51 203.554 146.591C195.925 149.821 192.36 158.624 195.59 166.253C198.82 173.881 207.626 177.448 215.251 174.216C223.527 170.712 232.193 168.333 240.999 167.068V181C240.999 189.284 247.715 196 255.999 196C264.283 196 270.999 189.284 270.999 181V167.069C279.805 168.333 288.471 170.712 296.747 174.217C304.39 177.454 313.184 173.867 316.408 166.254C319.638 158.625 316.073 149.823 308.444 146.592C296.445 141.511 283.81 138.269 270.999 136.847V106.683C287.947 108.208 304.423 112.318 320.146 118.979C327.804 122.224 336.59 118.616 339.809 111.019C343.04 103.391 339.477 94.588 331.849 91.356C312.404 83.116 291.995 78.165 271 76.57V46.508C388.649 54.222 482 151.954 482 271Z"
      fill="#fff" />
  </g>
  <defs>
    <clipPath id="clip0">
      <rect width="512" height="512" fill="#fff" />
    </clipPath>
  </defs>
</svg>