<svg width="512" height="512" viewBox="0 0 512 512" fill="none" xmlns="http://www.w3.org/2000/svg">
  <g clip-path="url(#clip0)">
    <path
      d="M296.606 302.607C302.464 296.749 302.464 287.252 296.606 281.394C290.749 275.536 281.251 275.536 275.393 281.394L256 300.787L236.606 281.393C230.749 275.535 221.251 275.535 215.393 281.393C209.535 287.251 209.535 296.748 215.393 302.606L241 328.213V356.558C231.406 359.137 222.606 364.18 215.394 371.393C209.536 377.251 209.536 386.748 215.394 392.606C221.251 398.464 230.749 398.464 236.607 392.606C247.3 381.913 264.701 381.913 275.394 392.606C281.251 398.463 290.749 398.464 296.607 392.606C302.465 386.748 302.465 377.251 296.607 371.393C289.394 364.18 280.595 359.137 271.001 356.558V328.213L296.606 302.607ZM202.708 188.583L172.708 173.583C165.301 169.88 156.289 172.881 152.584 180.291C148.879 187.701 151.882 196.711 159.292 200.416L189.292 215.416C196.711 219.125 205.716 216.107 209.416 208.708C213.121 201.299 210.118 192.288 202.708 188.583ZM339.292 173.583L309.292 188.583C301.882 192.288 298.879 201.298 302.584 208.708C306.282 216.105 315.286 219.126 322.708 215.416L352.708 200.416C360.118 196.711 363.121 187.701 359.416 180.291C355.712 172.883 346.702 169.879 339.292 173.583ZM443.858 54.643C398.786 9.837 346.578 5 326.225 5C303.879 5 280.335 10.681 256.149 21.898C231.867 10.68 208.228 5 185.775 5C165.437 5 113.268 9.831 68.205 54.578C22.947 99.519 0 169.305 0 262C0 272.231 0.551 282.364 1.636 292.116C2.269 297.8 6.078 302.629 11.458 304.568C16.838 306.507 22.853 305.219 26.966 301.245L32.204 296.185C37.132 363.795 57.774 427.736 111.322 468.832C158.33 504.909 215.987 512.116 254.139 516.885C254.756 516.962 255.378 517.001 255.999 517.001C256.62 517.001 257.242 516.962 257.859 516.885C296.226 512.089 354.208 504.842 401.086 468.771C454.474 427.693 474.917 363.702 479.804 296.192L485.034 301.245C489.147 305.219 495.165 306.506 500.543 304.568C505.923 302.629 509.732 297.798 510.364 292.115C511.45 282.36 512 272.228 512 262C512 169.356 489.074 99.591 443.858 54.643ZM476.422 251.212C472.093 247.029 465.681 245.841 460.141 248.192C454.599 250.543 451 255.98 451 262C451 349.821 428.689 409.679 382.792 444.995C343.094 475.541 291.135 482.484 256 486.884C221.072 482.51 169.421 475.604 129.587 445.033C83.435 409.613 61 349.742 61 262C61 255.98 57.401 250.543 51.859 248.192C46.341 245.849 39.924 247.013 35.578 251.212L30.027 256.574C30.869 174.904 50.814 114.125 89.343 75.866C126.488 38.982 169.155 35 185.775 35C205.585 35 227.003 40.706 249.434 51.96C253.675 54.088 258.671 54.083 262.909 51.949C285.236 40.702 306.539 35 326.225 35C342.859 35 385.557 38.987 422.708 75.919C461.204 114.187 481.132 174.945 481.973 256.574L476.422 251.212ZM326.219 67C300.364 67 275.844 75.695 256 91.701C236.156 75.695 211.638 67 185.782 67C154.2 67 124.602 81.008 104.58 105.431C84.558 129.855 76.627 161.624 82.82 192.593L106.822 312.592C112.256 339.771 128.167 363.507 151 378.928V382C151 423.355 184.645 457 226 457H286C327.355 457 361 423.355 361 382V378.928C383.833 363.507 399.744 339.772 405.178 312.594L429.18 192.594C435.373 161.625 427.443 129.856 407.42 105.432C387.397 81.008 357.801 67 326.219 67ZM399.762 186.709L375.76 306.711C371.46 328.22 357.949 346.717 338.693 357.461C333.944 360.11 331.001 365.122 331.001 370.56V382C331.001 406.813 310.814 427 286.001 427H226.001C201.188 427 181.001 406.813 181.001 382V370.56C181.001 365.122 178.058 360.11 173.309 357.461C154.052 346.717 140.541 328.22 136.242 306.71L112.24 186.71C107.815 164.59 113.48 141.897 127.782 124.452C142.083 107.006 163.224 97 185.782 97C207.71 97 228.326 105.54 243.833 121.046L245.395 122.607C251.252 128.464 260.749 128.464 266.606 122.607L268.169 121.045C283.674 105.54 304.29 97 326.219 97C348.778 97 369.918 107.005 384.22 124.451C398.522 141.897 404.187 164.589 399.762 186.709Z"
      fill="#fff" />
  </g>
  <defs>
    <clipPath id="clip0">
      <rect width="512" height="512" fill="#fff" />
    </clipPath>
  </defs>
</svg>