<svg width="512" height="512" viewBox="0 0 512 512" fill="none" xmlns="http://www.w3.org/2000/svg">
  <path
    d="M437 210H391V202.317C444.543 183.458 481 132.694 481 75C481 33.645 447.355 0 406 0C397.716 0 391 6.716 391 15V75C391 99.813 370.813 120 346 120C323.708 120 188.74 120 166 120C141.187 120 121 99.813 121 75V15C121 6.716 114.284 0 106 0C64.645 0 31 33.645 31 75C31 132.694 67.457 183.459 121 202.317V210H75C33.645 210 0 243.645 0 285C0 293.284 6.716 300 15 300H76C93.398 300 109.418 294.029 122.155 284.05C124.645 313.347 130.784 331.787 136.769 349.743C144.088 371.698 151 392.434 151 435V467C151 491.813 171.187 512 196 512H316C340.813 512 361 491.813 361 467V435C361 392.434 367.912 371.698 375.23 349.743C381.215 331.787 387.354 313.347 389.844 284.05C402.582 294.029 418.602 300 436 300H497C505.284 300 512 293.284 512 285C512 243.645 478.355 210 437 210ZM76 270H32.57C38.761 252.539 55.444 240 75 240H118.43C112.239 257.461 95.556 270 76 270ZM124.761 171.59C86.556 155.325 61 117.601 61 75C61 55.444 73.539 38.761 91 32.57V75C91 107.178 111.373 134.68 139.894 145.305C133.19 152.865 127.993 161.782 124.761 171.59ZM331 467C331 475.271 324.271 482 316 482H196C187.729 482 181 475.271 181 467V435C181 426.729 187.729 420 196 420H316C324.271 420 331 426.729 331 435V467ZM346.77 340.257C341.676 355.539 336.468 371.165 333.495 393.54C328.114 391.261 322.202 390 316 390H196C189.798 390 183.886 391.261 178.505 393.54C175.532 371.165 170.324 355.539 165.23 340.257C157.912 318.302 151 297.566 151 255V195C151 170.187 171.187 150 196 150H241V255C241 296.355 274.645 330 316 330H350.135C349.039 333.447 347.909 336.837 346.77 340.257ZM361 255C361 273.516 359.691 287.898 357.611 300.05C357.285 300.029 356.961 300 356.63 300H316C291.187 300 271 279.813 271 255V150H316C340.813 150 361 170.187 361 195V255ZM387.239 171.59C384.008 161.783 378.81 152.866 372.106 145.306C400.627 134.68 421 107.178 421 75V32.57C438.461 38.761 451 55.444 451 75C451 117.601 425.444 155.325 387.239 171.59ZM436 270C416.444 270 399.761 257.461 393.57 240H437C456.556 240 473.239 252.539 479.43 270H436ZM316 240C307.716 240 301 246.716 301 255C301 263.284 307.716 270 316 270C324.284 270 331 263.284 331 255C331 246.716 324.284 240 316 240ZM196 240C187.716 240 181 246.716 181 255C181 263.284 187.716 270 196 270C204.284 270 211 263.284 211 255C211 246.716 204.284 240 196 240Z"
    fill="#fff" />
</svg>