<svg width="512" height="512" viewBox="0 0 512 512" fill="none" xmlns="http://www.w3.org/2000/svg">
  <path
    d="M165 196C156.716 196 150 202.716 150 211C150 219.284 156.716 226 165 226C173.284 226 180 219.284 180 211C180 202.716 173.284 196 165 196ZM101.964 183.344C104.124 181.482 100.122 184.875 101.964 183.344V183.344ZM286 376C279.577 376 274.1 371.934 271.966 366.247L296.607 341.606C302.465 335.748 302.465 326.251 296.607 320.393C290.75 314.535 281.252 314.535 275.394 320.393L256 339.787L236.606 320.394C230.749 314.536 221.251 314.536 215.393 320.394C209.535 326.252 209.535 335.749 215.393 341.607L240.034 366.248C237.9 371.934 232.423 376 226 376C217.716 376 211 382.716 211 391C211 399.284 217.716 406 226 406C237.515 406 248.033 401.653 256 394.514C263.967 401.653 274.485 406 286 406C294.284 406 301 399.284 301 391C301 382.716 294.284 376 286 376ZM370.717 150.208C352.818 134.964 328.298 131.682 306.725 141.645C285.306 151.538 272 172.365 272 196C272 206.243 272.646 208.6 290.402 263.234V263.235C300.686 295.44 329.779 316 362 316C393.552 316 421.114 296.663 432.217 266.737C444.687 233.126 431.989 198.969 406.429 180.499L370.717 150.208ZM404.09 256.302C398.764 270.659 384.91 286 362 286C342.316 286 325.036 273.207 319 254.166C318.983 254.112 318.966 254.06 318.948 254.006C303.582 205.554 302 202.878 302 196C302 184.023 308.469 173.885 319.304 168.881C327.787 164.963 340.64 163.998 351.288 173.068C392.662 208.094 390.352 206.367 391.994 207.423C406.176 220.307 410.705 238.475 404.09 256.302ZM512 91C512 49.645 478.355 16 437 16C410.278 16 385.547 30.556 372.244 53.186C337.275 30.088 298.082 16 256 16C213.927 16 174.735 30.082 139.756 53.186C126.453 30.556 101.722 16 75 16C33.645 16 0 49.645 0 91C0 119.814 16.796 146.151 42.416 158.55C15.385 204.708 0 255.33 0 301C0 361.107 26.698 411.521 77.207 446.791C122.65 478.524 186.147 496 256 496C325.853 496 389.35 478.524 434.793 446.791C485.302 411.521 512 361.107 512 301C512 255.33 496.615 204.708 469.584 158.55C495.204 146.151 512 119.814 512 91ZM437 46C461.813 46 482 66.187 482 91C482 109.553 470.401 126.397 453.105 133.031C436.938 110.222 418.021 89.178 396.541 71.284C404.016 56.021 419.823 46 437 46ZM30 91C30 66.187 50.187 46 75 46C92.178 46 107.984 56.021 115.459 71.284C94.02 89.144 75.095 110.175 58.895 133.031C41.599 126.397 30 109.553 30 91ZM482 301C482 350.875 459.737 392.783 417.618 422.194C377.164 450.443 319.767 466 256 466C192.233 466 134.836 450.443 94.382 422.194C52.263 392.783 30 350.875 30 301C30 247.209 55.814 182.47 97.37 132.047C143.1 76.559 199.436 46 256 46C312.564 46 368.9 76.559 414.63 132.047C456.186 182.47 482 247.209 482 301ZM240 196C240 172.365 226.694 151.538 205.274 141.645C183.702 131.682 159.182 134.964 141.306 150.188C112.334 174.65 103.904 181.731 101.963 183.344C101.835 183.454 101.69 183.58 101.516 183.729C76.955 204.863 68.627 236.67 79.782 266.738C90.886 296.664 118.448 316 150 316C182.748 316 211.467 294.885 221.533 263.437C239.866 208.438 240 204.576 240 196ZM193.06 253.984C193.04 254.045 193.02 254.105 193.001 254.166C186.965 273.207 169.684 286 150 286C127.091 286 113.236 270.659 107.91 256.303C101.297 238.478 105.598 219.559 121.499 206.328C121.512 206.318 123.568 204.586 160.736 173.048C171.36 163.999 184.211 164.963 192.696 168.881C203.531 173.885 210 184.023 210 196C210 202.882 208.497 205.302 193.06 253.984ZM347 196C338.716 196 332 202.716 332 211C332 219.284 338.716 226 347 226C355.284 226 362 219.284 362 211C362 202.716 355.284 196 347 196Z"
    fill="#fff" />
</svg>