<svg width="512" height="512" viewBox="0 0 512 512" fill="none" xmlns="http://www.w3.org/2000/svg">
  <g clip-path="url(#clip0)">
    <path
      d="M226 337C217.716 337 211 343.716 211 352C211 360.284 217.716 367 226 367C234.284 367 241 360.284 241 352C241 343.716 234.284 337 226 337ZM316 217C307.716 217 301 223.716 301 232C301 240.284 307.716 247 316 247C324.284 247 331 240.284 331 232C331 223.716 324.284 217 316 217ZM376 127C400.813 127 421 106.813 421 82C421 57.187 400.813 37 376 37C351.187 37 331 57.187 331 82C331 91.213 333.787 99.784 338.556 106.925L313.754 139.995C300.535 133.712 286.142 129.519 271 127.838V92.42C288.459 86.228 301 69.555 301 50C301 25.187 280.813 5 256 5C231.187 5 211 25.187 211 50C211 69.555 223.541 86.228 241 92.42V127.838C225.858 129.52 211.465 133.713 198.246 139.995L173.444 106.925C178.213 99.784 181 91.213 181 82C181 57.187 160.813 37 136 37C111.187 37 91 57.187 91 82C91 106.813 111.187 127 136 127C140.686 127 145.206 126.278 149.457 124.943L172.653 155.871C141.22 180.61 121 218.988 121 262C121 281.9 125.434 301.635 133.856 319.527C133.898 319.621 133.929 319.716 133.973 319.809L215.329 491.275C222.744 506.902 238.708 517 256 517C273.292 517 289.256 506.902 296.671 491.275L378.027 319.809C378.071 319.715 378.102 319.619 378.144 319.525C386.566 301.634 391 281.9 391 262C391 218.988 370.78 180.61 339.347 155.871L362.543 124.943C366.794 126.278 371.314 127 376 127ZM136 97C127.729 97 121 90.271 121 82C121 73.729 127.729 67 136 67C144.271 67 151 73.729 151 82C151 90.271 144.271 97 136 97ZM256 35C264.271 35 271 41.729 271 50C271 58.271 264.271 65 256 65C247.729 65 241 58.271 241 50C241 41.729 247.729 35 256 35ZM269.567 478.415C267.093 483.63 261.767 487 256 487C250.233 487 244.907 483.63 242.433 478.415L172.079 330.137C216.503 320.019 242.266 300.721 256 286.428C269.734 300.72 295.498 320.018 339.921 330.136L269.567 478.415ZM361 262C361 275.835 358.256 289.563 353.006 302.247C320.745 295.919 300.293 284.373 288.489 275.361C275.202 265.214 269.901 256.142 269.374 255.204C266.917 250.05 261.824 246.903 256.107 246.83C250.366 246.756 245.154 250.149 242.583 255.292C242.404 255.65 223.729 289.567 158.995 302.248C153.744 289.564 151 275.836 151 262C151 204.103 198.103 157 256 157C313.897 157 361 204.103 361 262ZM376 67C384.271 67 391 73.729 391 82C391 90.271 384.271 97 376 97C367.729 97 361 90.271 361 82C361 73.729 367.729 67 376 67ZM196 217C187.716 217 181 223.716 181 232C181 240.284 187.716 247 196 247C204.284 247 211 240.284 211 232C211 223.716 204.284 217 196 217ZM286 367C294.284 367 301 360.284 301 352C301 343.716 294.284 337 286 337C277.716 337 271 343.716 271 352C271 360.284 277.716 367 286 367Z"
      fill="#fff" />
  </g>
  <defs>
    <clipPath id="clip0">
      <rect width="512" height="512" fill="#fff" />
    </clipPath>
  </defs>
</svg>