<svg width="512" height="512" viewBox="0 0 512 512" fill="none" xmlns="http://www.w3.org/2000/svg">
  <g clip-path="url(#clip0)">
    <path
      d="M166.017 211.961C157.734 211.961 151.019 218.676 151.019 226.958C151.019 235.241 157.734 241.956 166.017 241.956C174.299 241.956 181.014 235.241 181.014 226.958C181.014 218.676 174.299 211.961 166.017 211.961ZM478.527 98.0841C498.778 75.0393 510.644 45.7607 511.939 15.6412C512.294 7.36676 505.875 0.370046 497.6 0.0141115C489.336 -0.339824 482.328 6.078 481.971 14.3535C480.97 37.6582 471.744 60.362 456 78.2787C445.448 90.2745 430.861 92.6171 409.594 92.6071C367.786 53.4693 313.547 31.9942 256 31.9942C198.453 31.9942 144.214 53.4693 102.404 92.6081C81.1391 92.6191 66.5518 90.2766 56.0037 78.2848C40.2546 60.362 31.0293 37.6582 30.0285 14.3535C29.6726 6.079 22.6938 -0.341823 14.3994 0.0141115C6.12488 0.370046 -0.294946 7.36676 0.0609886 15.6422C1.35575 45.7607 13.2216 75.0393 33.4779 98.0901C45.8636 112.171 60.8228 118.355 76.7929 120.933C47.1183 159.862 31.0413 207.168 31.0413 256.953V436.92C31.0413 445.202 37.7561 451.917 46.0385 451.917C119.758 451.917 170.101 467.09 199.351 479.82C230.889 493.545 245.316 507.437 245.396 507.514C248.196 510.381 251.935 511.976 255.943 512H256.03C260.006 512 263.73 510.389 266.543 507.576C266.686 507.437 281.112 493.545 312.65 479.82C341.899 467.09 392.241 451.917 465.961 451.917C474.244 451.917 480.959 445.202 480.959 436.92V256.953C480.959 207.168 464.881 159.861 435.206 120.932C451.178 118.353 466.139 112.168 478.527 98.0841ZM256 61.9887C294.12 61.9887 329.712 72.9957 359.786 91.9832H315.989C297.353 91.9832 279.458 98.92 265.598 111.516C262.043 114.747 258.839 118.281 256.001 122.057C253.163 118.281 249.959 114.747 246.404 111.516C232.542 98.92 214.647 91.9832 196.011 91.9832H152.214C182.288 72.9957 217.88 61.9887 256 61.9887ZM450.964 256.953V422.126C339.611 425.087 278.838 460.546 256 477.487C233.162 460.547 172.389 425.087 61.0358 422.126V256.953C61.0358 204.834 81.594 157.427 115.026 122.412C121.987 122.222 129.015 121.978 136.022 121.978H196.011C218.866 121.978 238.529 139.754 240.776 162.448C241.543 170.189 248.063 175.969 255.682 175.969C255.787 175.969 255.894 175.956 256 175.953C256.105 175.955 256.213 175.969 256.318 175.969C263.936 175.969 270.459 170.188 271.224 162.448C273.471 139.754 293.134 121.978 315.989 121.978C315.989 121.978 389.954 122.219 396.974 122.412C430.406 157.426 450.964 204.834 450.964 256.953ZM330.986 226.958C330.986 235.241 337.701 241.956 345.983 241.956C354.266 241.956 360.981 235.241 360.981 226.958C360.981 218.676 354.266 211.961 345.983 211.961C337.701 211.961 330.986 218.676 330.986 226.958ZM270.997 226.958C270.997 268.306 304.636 301.945 345.983 301.945C387.331 301.945 420.97 268.306 420.97 226.958C420.97 185.611 387.331 151.972 345.983 151.972C304.636 151.972 270.997 185.611 270.997 226.958ZM390.975 226.958C390.975 251.767 370.792 271.95 345.983 271.95C321.175 271.95 300.992 251.767 300.992 226.958C300.992 202.15 321.175 181.967 345.983 181.967C370.792 181.967 390.975 202.15 390.975 226.958ZM322.696 333.522L262.707 303.527C258.485 301.417 253.515 301.417 249.293 303.527L189.304 333.522C184.992 335.678 181.98 339.775 181.207 344.534C180.434 349.293 181.998 354.132 185.406 357.54L245.395 417.529C248.323 420.458 252.162 421.923 255.999 421.923C259.836 421.923 263.676 420.459 266.603 417.529L326.592 357.54C330 354.132 331.564 349.292 330.791 344.534C330.018 339.776 327.007 335.679 322.696 333.522ZM256 385.716L221.328 351.046L256 333.71L290.672 351.046L256 385.716ZM241.003 226.958C241.003 185.611 207.364 151.972 166.017 151.972C124.669 151.972 91.0303 185.611 91.0303 226.958C91.0303 268.306 124.669 301.945 166.017 301.945C207.364 301.945 241.003 268.306 241.003 226.958ZM166.017 271.95C141.208 271.95 121.025 251.767 121.025 226.958C121.025 202.15 141.208 181.967 166.017 181.967C190.825 181.967 211.008 202.15 211.008 226.958C211.008 251.767 190.825 271.95 166.017 271.95Z"
      fill="#fff" />
  </g>
  <defs>
    <clipPath id="clip0">
      <rect width="512" height="512" fill="#fff" />
    </clipPath>
  </defs>
</svg>