<svg width="512" height="512" viewBox="0 0 512 512" fill="none" xmlns="http://www.w3.org/2000/svg">
  <path
    d="M266.606 185.394C260.749 179.536 251.251 179.536 245.393 185.394L185.393 245.394C180.828 249.959 179.696 256.934 182.583 262.708L242.583 382.708C245.124 387.79 250.318 391 256 391C261.682 391 266.876 387.79 269.416 382.708L329.416 262.708C332.304 256.934 331.172 249.959 326.606 245.394L266.606 185.394ZM256 342.459L214.251 258.962L256 217.213L297.749 258.962L256 342.459ZM172.708 182.583L142.708 167.583C135.302 163.879 126.29 166.881 122.584 174.291C118.879 181.701 121.882 190.71 129.292 194.416L159.292 209.416C166.716 213.128 175.719 210.103 179.416 202.708C183.121 195.298 180.118 186.289 172.708 182.583ZM369.292 167.583L339.292 182.583C331.882 186.288 328.879 195.298 332.584 202.708C336.289 210.12 345.3 213.121 352.708 209.416L382.708 194.416C390.118 190.711 393.121 181.701 389.416 174.291C385.712 166.882 376.703 163.878 369.292 167.583ZM497 481C472.065 481 451 460.393 451 436V196C451 88.477 363.523 1 256 1C148.477 1 61 88.477 61 196V436C61 460.393 39.935 481 15 481C6.716 481 0 487.716 0 496C0 504.284 6.716 511 15 511H196C220.507 511 242.306 499.186 256 480.953C269.694 499.186 291.493 511 316 511H497C505.284 511 512 504.284 512 496C512 487.716 505.284 481 497 481ZM406 481C381.187 481 361 460.813 361 436C361 427.716 354.284 421 346 421C337.716 421 331 427.716 331 436C331 452.871 336.603 468.456 346.041 481H316C291.187 481 271 460.813 271 436C271 427.716 264.284 421 256 421C247.716 421 241 427.716 241 436C241 460.813 220.813 481 196 481H165.959C175.397 468.456 181 452.871 181 436C181 427.716 174.284 421 166 421C157.716 421 151 427.716 151 436C151 460.813 130.813 481 106 481H75.647C85.606 468.053 91 452.418 91 436V196C91 105.019 165.019 31 256 31C346.981 31 421 105.019 421 196V436C421 452.418 426.394 468.053 436.353 481H406Z"
    fill="#fff" />
</svg>