<svg width="512" height="512" viewBox="0 0 512 512" fill="none" xmlns="http://www.w3.org/2000/svg">
  <path
    d="M195 261C186.716 261 180 267.716 180 276C180 284.284 186.716 291 195 291C203.284 291 210 284.284 210 276C210 267.716 203.284 261 195 261ZM287 411C278.716 411 272 417.716 272 426C272 434.284 278.716 441 287 441C295.284 441 302 434.284 302 426C302 417.716 295.284 411 287 411ZM437 231H392V216C392 210.904 391.477 205.897 390.483 201H407C464.897 201 512 153.897 512 96C512 54.645 478.355 21 437 21C428.716 21 422 27.716 422 36V66C422 74.271 415.271 81 407 81H301C283.092 81 267.003 88.896 256 101.377C244.997 88.896 228.908 81 211 81H105C96.729 81 90 74.271 90 66V36C90 27.716 83.284 21 75 21C33.645 21 0 54.645 0 96C0 153.897 47.103 201 105 201H121.517C120.523 205.897 120 210.904 120 216V231H75C33.645 231 0 264.645 0 306C0 314.284 6.716 321 15 321H75C92.96 321 109.461 314.648 122.388 304.081C124.805 317.278 128.762 327.753 132.861 338.599C140.895 359.853 150 383.943 150 441C150 474.084 176.916 501 210 501H302C335.084 501 362 474.084 362 441C362 383.943 371.105 359.853 379.139 338.599C383.238 327.754 387.195 317.278 389.612 304.081C402.539 314.648 419.04 321 437 321H497C505.284 321 512 314.284 512 306C512 264.645 478.355 231 437 231ZM75 291H32.57C38.761 273.539 55.444 261 75 261H117.43C111.239 278.461 94.556 291 75 291ZM105 171C63.645 171 30 137.355 30 96C30 76.444 42.539 59.761 60 53.57V66C60 90.813 80.187 111 105 111H211C227.542 111 241 124.458 241 141C241 157.542 227.542 171 211 171H105ZM362 276C362 299.09 357.179 311.844 351.076 327.992C343.204 348.818 333.551 374.364 332.168 427.703C331.881 429.604 332.05 430.02 332 441C332 457.542 318.542 471 302 471H210C193.458 471 180 457.542 180 441C179.95 429.969 180.119 429.606 179.832 427.703C178.449 374.364 168.795 348.818 160.924 327.992C154.821 311.844 150 299.09 150 276V216C150 210.817 150.871 205.791 152.568 201H211C228.908 201 244.997 193.104 256 180.623C267.003 193.104 283.092 201 301 201H359.432C361.129 205.791 362 210.817 362 216V276ZM301 171C284.458 171 271 157.542 271 141C271 124.458 284.458 111 301 111H407C431.813 111 452 90.813 452 66V53.57C469.461 59.761 482 76.444 482 96C482 137.355 448.355 171 407 171H301ZM437 291C417.444 291 400.761 278.461 394.57 261H437C456.556 261 473.239 273.539 479.43 291H437ZM317 261C308.716 261 302 267.716 302 276C302 284.284 308.716 291 317 291C325.284 291 332 284.284 332 276C332 267.716 325.284 261 317 261ZM225 411C216.716 411 210 417.716 210 426C210 434.284 216.716 441 225 441C233.284 441 240 434.284 240 426C240 417.716 233.284 411 225 411Z"
    fill="#fff" />
</svg>