<svg width="512" height="512" viewBox="0 0 512 512" fill="none" xmlns="http://www.w3.org/2000/svg">
  <path
    d="M196 150C187.716 150 181 156.716 181 165C181 173.284 187.716 180 196 180C204.284 180 211 173.284 211 165C211 156.716 204.284 150 196 150ZM436 0H406C383.155 0 361.745 10.552 347.678 27.881C321.44 10.281 289.899 0 256 0C222.101 0 190.56 10.281 164.322 27.881C150.255 10.552 128.845 0 106 0H76C51.187 0 31 20.187 31 45C31 69.813 51.187 90 76 90H109.052C97.514 112.514 91 138.011 91 165C91 227.386 120.897 260.812 149.81 293.137C179.05 325.829 206.779 356.843 210.559 420H196C187.716 420 181 426.716 181 435C181 443.284 187.716 450 196 450H241V467C241 491.813 261.187 512 286 512H376C400.813 512 421 491.813 421 467C421 442.187 400.813 422 376 422C367.716 422 361 428.716 361 437C361 445.284 367.716 452 376 452C384.271 452 391 458.729 391 467C391 475.271 384.271 482 376 482H286C277.729 482 271 475.271 271 467V450H316C324.284 450 331 443.284 331 435C331 426.716 324.284 420 316 420H301.442C305.221 356.843 332.95 325.829 362.191 293.137C391.103 260.812 421 227.386 421 165C421 138.011 414.486 112.514 402.948 90H436C460.813 90 481 69.813 481 45C481 20.187 460.813 0 436 0ZM76 60C67.729 60 61 53.271 61 45C61 36.729 67.729 30 76 30H106C119.725 30 132.588 36.349 141.031 46.772C136.727 50.959 132.644 55.37 128.814 60H76ZM339.83 273.137C309.528 307.015 275.432 345.142 271.398 420H240.601C236.568 345.142 202.471 307.015 172.169 273.137C144.713 242.438 121 215.927 121 165C121 90.561 181.561 30 256 30C330.439 30 391 90.561 391 165C391 215.927 367.287 242.438 339.83 273.137ZM436 60H383.186C379.357 55.37 375.273 50.958 370.969 46.772C379.412 36.349 392.275 30 406 30H436C444.271 30 451 36.729 451 45C451 53.271 444.271 60 436 60ZM286 270H226C217.716 270 211 276.716 211 285C211 293.284 217.716 300 226 300H286C294.284 300 301 293.284 301 285C301 276.716 294.284 270 286 270ZM316 150C307.716 150 301 156.716 301 165C301 173.284 307.716 180 316 180C324.284 180 331 173.284 331 165C331 156.716 324.284 150 316 150ZM286 210H226C217.716 210 211 216.716 211 225C211 233.284 217.716 240 226 240H286C294.284 240 301 233.284 301 225C301 216.716 294.284 210 286 210Z"
    fill="#fff" />
</svg>