<svg width="512" height="512" viewBox="0 0 512 512" fill="none" xmlns="http://www.w3.org/2000/svg">
  <path
    d="M196 210C204.284 210 211 203.284 211 195C211 186.716 204.284 180 196 180C187.716 180 181 186.716 181 195C181 203.284 187.716 210 196 210ZM316 180C307.716 180 301 186.716 301 195C301 203.284 307.716 210 316 210C324.284 210 331 203.284 331 195C331 186.716 324.284 180 316 180ZM322.708 241.583L262.708 211.583C258.485 209.472 253.515 209.472 249.292 211.583C238.405 217.027 189.955 241.247 189.209 241.63C180.231 246.185 178.14 258.353 185.393 265.606L236.746 316.959C234.159 321.015 231.101 325.957 228.024 331.26C212.765 357.566 211 368.822 211 375C211 399.813 231.187 420 256 420C280.813 420 301 399.813 301 375C301 368.822 299.235 357.566 283.975 331.26C280.899 325.957 277.841 321.016 275.254 316.959C286.445 305.766 326.005 266.214 326.677 265.528C333.853 258.251 331.747 246.122 322.708 241.583ZM256 390C247.729 390 241 383.271 241 375.018C241.122 370.433 247.361 357.362 256 342.807C264.635 357.357 270.872 370.422 271 375.013C270.994 383.277 264.267 390 256 390ZM256 293.787L221.322 259.109L256 241.771L290.678 259.11L256 293.787ZM450.598 431.547L387.314 164.014C376.86 118.889 343.612 82.242 299.694 67.243C298.142 53.938 295.239 41.642 291.141 31.396C280.213 4.079 264.434 0 256 0C247.566 0 231.787 4.079 220.86 31.396C216.761 41.642 213.858 53.937 212.306 67.243C167.86 82.422 135.008 119.461 124.702 163.946L61.4022 431.547C60.3462 436.01 61.3902 440.71 64.2352 444.306C67.0812 447.902 71.4152 450 76.0002 450H161.333L247.49 509.353C250.052 511.118 253.026 512 256 512C258.974 512 261.948 511.118 264.51 509.353L350.667 450H436C440.586 450 444.919 447.902 447.765 444.306C450.609 440.71 451.652 436.01 450.598 431.547ZM256 30.375C262.967 35.86 271 60.135 271 90C271 125.208 260.909 145.76 256 149.625C251.091 145.76 241 125.208 241 90C241 62.612 248.198 36.517 256 30.375ZM346 420C342.961 420 339.993 420.923 337.49 422.647L256 478.785L174.51 422.647C172.007 420.923 169.039 420 166 420H94.9622L153.913 170.784C161.236 139.176 182.51 113.373 211.253 99.941C212.147 118.136 215.473 135.137 220.86 148.604C231.787 175.921 247.566 180 256 180C264.434 180 280.213 175.921 291.141 148.604C296.527 135.137 299.854 118.136 300.748 99.941C329.492 113.375 350.769 139.187 358.103 170.852L417.038 420H346Z"
    fill="#fff" />
</svg>