<svg width="512" height="512" viewBox="0 0 512 512" fill="none" xmlns="http://www.w3.org/2000/svg">
  <path
    d="M316 180C307.716 180 301 186.716 301 195C301 203.284 307.716 210 316 210C324.284 210 331 203.284 331 195C331 186.716 324.284 180 316 180ZM196 180C187.716 180 181 186.716 181 195C181 203.284 187.716 210 196 210C204.284 210 211 203.284 211 195C211 186.716 204.284 180 196 180ZM465.716 343.096C458.148 304.751 451 268.534 451 195C451 87.229 363.796 0 256 0C148.477 0 61 87.477 61 195C61 268.534 53.852 304.751 46.284 343.096C38.77 381.167 31 420.534 31 497C31 505.284 37.716 512 46 512H466C474.284 512 481 505.284 481 497C481 420.534 473.23 381.167 465.716 343.096ZM361 482H151V195C151 170.187 171.187 150 196 150C220.813 150 241 170.187 241 195V218.787L215.394 244.393C210.829 248.958 209.697 255.933 212.584 261.707L242.584 321.707C245.124 326.79 250.318 330 256 330C261.682 330 266.876 326.79 269.416 321.708L299.416 261.708C302.304 255.934 301.172 248.959 296.606 244.394L271 218.787V195C271 170.187 291.187 150 316 150C340.813 150 361 170.187 361 195V482ZM244.251 257.962L256 246.213L267.749 257.962L256 281.459L244.251 257.962ZM391 482V195C391 153.645 357.355 120 316 120C291.492 120 269.694 131.818 256 150.052C242.306 131.818 220.508 120 196 120C154.645 120 121 153.645 121 195V482H61.104C62.008 418.35 68.681 384.548 75.715 348.904C83.23 310.833 91 271.466 91 195C91 104.019 165.019 30 256 30C345.513 30 421 102.371 421 195C421 271.466 428.77 310.833 436.284 348.904C443.318 384.548 449.991 418.35 450.895 482H391Z"
    fill="#fff" />
</svg>