<svg width="512" height="512" viewBox="0 0 512 512" fill="none" xmlns="http://www.w3.org/2000/svg">
  <path
    d="M226.001 150C234.285 150 241.001 143.284 241.001 135C241.001 126.716 234.285 120 226.001 120C217.717 120 211.001 126.716 211.001 135C211.001 143.284 217.716 150 226.001 150ZM286.001 150C294.285 150 301.001 143.284 301.001 135C301.001 126.716 294.285 120 286.001 120C277.717 120 271.001 126.716 271.001 135C271.001 143.284 277.716 150 286.001 150ZM256.001 210C198.096 210 151.001 257.116 151.001 315V435C151.001 443.284 157.717 450 166.001 450C174.285 450 181.001 443.284 181.001 435V405C181.001 363.645 214.646 330 256.001 330C297.356 330 331.001 363.645 331.001 405V435C331.001 443.284 337.717 450 346.001 450C354.285 450 361.001 443.284 361.001 435V315C361.001 257.092 313.88 210 256.001 210ZM331.001 331.596C311.928 312.113 285.355 300 256.001 300C226.647 300 200.074 312.113 181.001 331.596V315C181.001 290.515 192.798 268.736 211.003 255.039C211.024 263.305 217.73 270 226.001 270C234.285 270 241.001 263.284 241.001 255V241.509C245.85 240.521 250.865 240 256.001 240C261.137 240 266.153 240.521 271.001 241.509V255C271.001 263.284 277.717 270 286.001 270C294.272 270 300.978 263.305 300.999 255.039C319.204 268.736 331.001 290.515 331.001 315V331.596ZM439.024 204.026L304.024 24.026C292.74 8.981 274.788 0 256.001 0C237.214 0 219.262 8.981 207.978 24.026L72.9775 204.026C51.3455 232.875 59.8965 274.479 91.4465 292.258C71.7635 352.162 61.0015 424.222 61.0015 497C61.0015 505.284 67.7175 512 76.0015 512H436.001C444.285 512 451.001 505.284 451.001 497C451.001 424.222 440.238 352.162 420.557 292.258C452.073 274.499 460.674 232.898 439.024 204.026ZM420.842 482H91.1595C92.6265 412.197 104.287 344.115 124.366 288.833C127.41 280.454 122.507 271.264 113.833 269.142C92.7455 263.983 84.2615 238.985 96.9785 222.026L231.978 42.026C237.71 34.383 246.465 30 256.001 30C265.537 30 274.292 34.383 280.024 42.026L415.023 222.025C427.741 238.985 419.257 263.983 398.169 269.142C389.51 271.261 384.586 280.44 387.636 288.833C407.714 344.115 419.376 412.197 420.842 482Z"
    fill="#fff" />
</svg>