<svg width="512" height="512" viewBox="0 0 512 512" fill="none" xmlns="http://www.w3.org/2000/svg">
  <path
    d="M135.997 241.993C144.281 241.993 150.997 235.276 150.997 226.992C150.997 218.708 144.281 211.992 135.997 211.992C127.712 211.992 120.996 218.708 120.996 226.992C120.996 235.276 127.712 241.993 135.997 241.993ZM286.001 301.994C277.717 301.994 271 308.71 271 316.995C271 325.279 277.717 331.995 286.001 331.995C294.285 331.995 301.001 325.279 301.001 316.995C301.001 308.71 294.285 301.994 286.001 301.994ZM404.783 157.729L326.975 125.311L269.46 8.36623C267.01 3.38909 261.916 0.00600016 256.009 0C250.119 0.00600016 245 3.35709 242.539 8.36623L185.025 125.311L107.217 157.729C79.1381 169.429 60.9946 196.615 60.9946 226.992V436.998C60.9946 441.283 62.8477 445.244 65.7378 447.943C68.5288 450.558 135.473 512 256 512C376.527 512 443.472 450.558 446.262 447.943C449.135 445.259 451.005 441.29 451.005 436.998V226.992C451.005 196.615 432.862 169.428 404.783 157.729ZM135.997 181.991C160.81 181.991 180.998 202.179 180.998 226.992C180.998 251.806 160.81 271.993 135.997 271.993C111.183 271.993 90.9954 251.806 90.9954 226.992C90.9954 202.046 111.219 181.991 135.997 181.991ZM256 481.999C194.991 481.999 140.127 463.964 100.576 436.987C124.468 420.697 177.685 391.997 256 391.997C316.905 391.997 371.801 409.979 411.423 437.009C387.531 453.298 334.315 481.999 256 481.999ZM421.004 407.345C391.033 388.418 335.038 361.996 256 361.996C176.962 361.996 120.967 388.418 90.9954 407.345V286.953C103.54 296.391 119.125 301.994 135.997 301.994C177.353 301.994 210.999 268.348 210.999 226.992C210.999 199.513 196.135 175.453 174.036 162.39L201.767 150.836C205.05 149.475 207.844 146.895 209.459 143.609L256 48.9763L302.541 143.609C304.184 146.951 306.984 149.484 310.232 150.836L337.964 162.39C315.865 175.454 301.001 199.514 301.001 226.992C301.001 268.348 334.647 301.994 376.003 301.994C392.875 301.994 408.46 296.391 421.004 286.953V407.345ZM376.003 271.993C351.19 271.993 331.002 251.806 331.002 226.992C331.002 202.179 351.19 181.991 376.003 181.991C400.744 181.991 421.004 202.013 421.004 226.992C421.004 251.806 400.817 271.993 376.003 271.993ZM225.999 301.994C217.715 301.994 210.999 308.71 210.999 316.995C210.999 325.279 217.715 331.995 225.999 331.995C234.283 331.995 241 325.279 241 316.995C241 308.71 234.283 301.994 225.999 301.994ZM376.003 211.992C367.719 211.992 361.003 218.708 361.003 226.992C361.003 235.276 367.719 241.993 376.003 241.993C384.287 241.993 391.004 235.276 391.004 226.992C391.004 218.708 384.287 211.992 376.003 211.992Z"
    fill="#fff" />
</svg>