<svg width="512" height="512" viewBox="0 0 512 512" fill="none" xmlns="http://www.w3.org/2000/svg">
  <g clip-path="url(#clip0)">
    <path
      d="M165.992 390.989C157.707 390.989 150.99 397.705 150.99 405.99C150.99 414.275 157.707 420.992 165.992 420.992C174.263 420.992 180.993 427.721 180.993 435.993C180.993 444.278 187.71 450.994 195.994 450.994C204.279 450.994 210.996 444.278 210.996 435.993C210.996 411.178 190.807 390.989 165.992 390.989ZM165.992 240.975C174.276 240.975 180.993 234.258 180.993 225.973C180.993 217.689 174.276 210.972 165.992 210.972C157.707 210.972 150.99 217.689 150.99 225.973C150.99 234.258 157.707 240.975 165.992 240.975ZM511.929 14.4694C511.632 6.63071 505.345 0.345123 497.508 0.0480954C494.735 -0.0609148 429.192 -2.0761 389.864 37.2536C389.639 37.4786 389.414 37.7046 389.191 37.9327C380.606 33.3782 370.967 30.956 361.011 30.956H150.991C141.035 30.956 131.395 33.3782 122.81 37.9327C122.587 37.7056 122.363 37.4796 122.139 37.2546C82.8077 -2.0761 17.2616 -0.0589146 14.4933 0.0480954C6.65459 0.345123 0.368997 6.63071 0.0709694 14.4694C-0.0340404 17.2407 -2.05323 82.7849 37.2775 122.115C49.6676 134.505 65.6911 143.897 84.9979 150.1C73.5479 264.771 60.9817 387.958 60.9817 390.99C60.9817 412.703 72.8098 432.438 91.2985 442.955C94.7168 480.636 126.326 512.001 165.992 512.001H346.008C385.696 512.001 417.284 480.616 420.701 442.955C439.19 432.437 451.018 412.703 451.018 390.99C451.018 388.009 438.379 264.04 427.002 150.1C446.31 143.897 462.332 134.506 474.723 122.115C514.053 82.7849 512.034 17.2397 511.929 14.4694ZM407.046 124.549C399.896 126.41 395.166 133.201 395.898 140.552C403.395 215.831 420.06 380.53 421.011 391.49C420.8 403.943 412.742 415.022 400.826 419.158C394.558 421.334 390.465 427.367 390.759 433.995C391.961 461.01 370.171 481.996 346.008 481.996H165.992C141.868 481.996 120.038 461.052 121.241 433.995C121.535 427.367 117.441 421.334 111.174 419.158C99.2583 415.022 91.2005 403.943 90.9885 391.49C91.8296 381.798 109.135 210.504 116.102 140.552C116.834 133.2 112.103 126.409 104.954 124.549C102.663 123.706 76.7522 119.158 58.4925 100.9C38.2726 80.6797 32.383 49.1657 30.6958 30.635C49.1916 32.2861 80.5955 38.1407 100.923 58.4686C103.473 61.0178 105.89 63.8521 108.106 66.8904C113.409 74.159 123.89 75.1591 130.469 69.0086C136.024 63.8171 143.311 60.9578 150.991 60.9578H361.011C368.69 60.9578 375.978 63.8171 381.534 69.0086C388.123 75.1661 398.601 74.149 403.896 66.8894C406.114 63.8491 408.53 61.0158 411.08 58.4676C431.299 38.2477 462.813 32.3581 481.343 30.671C479.693 49.1667 473.837 80.5706 453.51 100.898C435.124 119.283 409.403 123.682 407.046 124.549ZM346.008 210.972C337.724 210.972 331.007 217.689 331.007 225.973C331.007 234.258 337.724 240.975 346.008 240.975C354.293 240.975 361.01 234.258 361.01 225.973C361.01 217.689 354.293 210.972 346.008 210.972ZM346.008 390.989C321.193 390.989 301.004 411.178 301.004 435.993C301.004 444.278 307.721 450.994 316.006 450.994C324.29 450.994 331.007 444.278 331.007 435.993C331.007 427.721 337.737 420.992 346.008 420.992C354.293 420.992 361.01 414.275 361.01 405.99C361.01 397.705 354.293 390.989 346.008 390.989ZM314.387 317.095C314.337 316.885 314.283 316.676 314.224 316.468L270.434 161.879C268.605 155.423 262.712 150.966 256.001 150.966C249.29 150.966 243.396 155.423 241.568 161.879C241.568 161.879 197.665 316.885 197.615 317.095C188.669 354.812 217.36 390.989 256.001 390.989C294.601 390.989 323.34 354.844 314.387 317.095ZM256 360.986C236.864 360.986 222.464 343.17 226.74 324.301L256 221.009L285.26 324.301C289.541 343.189 275.118 360.986 256 360.986Z"
      fill="#fff" />
  </g>
  <defs>
    <clipPath id="clip0">
      <rect width="512" height="512" fill="#fff" />
    </clipPath>
  </defs>
</svg>