<svg width="512" height="512" viewBox="0 0 512 512" fill="none" xmlns="http://www.w3.org/2000/svg">
  <g clip-path="url(#clip0)">
    <path
      d="M420.937 135.009C439.177 121.315 451 99.513 451 75C451 33.645 417.355 0 376 0C367.716 0 361 6.716 361 15V75.053C348.455 65.612 332.874 60 316 60H196C179.127 60 163.545 65.612 151 75.053V15C151 6.716 144.284 0 136 0C94.645 0 61 33.645 61 75C61 99.513 72.823 121.315 91.064 135.009C72.828 148.704 61 170.492 61 195C61 218.455 72.306 240.604 91 254.689V285C91 325.787 114.719 362.651 151 379.874V452C151 485.084 177.916 512 211 512C228.901 512 244.997 504.119 256 491.646C267.003 504.119 283.099 512 301 512C334.084 512 361 485.084 361 452V379.874C397.281 362.652 421 325.788 421 285V254.689C439.694 240.604 451 218.454 451 195C451 170.492 439.172 148.704 420.937 135.009ZM391 32.57C408.461 38.761 421 55.444 421 75C421 94.556 408.461 111.239 391 117.43V32.57ZM91 75C91 55.444 103.539 38.761 121 32.57V117.429C103.539 111.239 91 94.556 91 75ZM331 452C331 468.542 317.542 482 301 482C284.458 482 271 468.542 271 452V411.213L296.606 385.607C302.464 379.749 302.464 370.252 296.606 364.394C290.749 358.536 281.251 358.536 275.393 364.394L256 383.787L236.606 364.394C230.749 358.536 221.251 358.536 215.393 364.394C209.535 370.252 209.535 379.749 215.393 385.607L241 411.213V452C241 468.542 227.542 482 211 482C194.458 482 181 468.542 181 452V345C181 303.645 214.645 270 256 270C297.355 270 331 303.645 331 345V452ZM398.455 233.713C393.84 236.399 391 241.337 391 246.677V285C391 308.989 379.517 331.079 361 345.003C361 287.106 313.897 240 256 240C198.103 240 151 287.103 151 345C132.483 331.075 121 308.988 121 285V246.678C121 241.338 118.161 236.4 113.545 233.714C99.428 225.498 91 211.025 91 195C91 170.187 111.187 150 136 150C144.284 150 151 143.284 151 135C151 110.187 171.187 90 196 90H316C340.813 90 361 110.187 361 135C361 143.284 367.716 150 376 150C400.813 150 421 170.187 421 195C421 211.025 412.572 225.498 398.455 233.713ZM166 180C157.716 180 151 186.716 151 195C151 203.284 157.716 210 166 210C174.284 210 181 203.284 181 195C181 186.716 174.284 180 166 180ZM346 180C337.716 180 331 186.716 331 195C331 203.284 337.716 210 346 210C354.284 210 361 203.284 361 195C361 186.716 354.284 180 346 180Z"
      fill="#fff" />
  </g>
  <defs>
    <clipPath id="clip0">
      <rect width="512" height="512" fill="#fff" />
    </clipPath>
  </defs>
</svg>