<svg width="512" height="512" viewBox="0 0 512 512" fill="none" xmlns="http://www.w3.org/2000/svg">
  <path
    d="M236.606 316.606L256 297.213L275.394 316.606C281.251 322.463 290.749 322.464 296.607 316.606C302.465 310.748 302.465 301.251 296.607 295.393L266.607 265.393C260.75 259.535 251.252 259.535 245.394 265.393L215.394 295.393C209.536 301.251 209.536 310.748 215.394 316.606C221.251 322.465 230.749 322.465 236.606 316.606ZM316 351H196C187.716 351 181 357.716 181 366C181 374.284 187.716 381 196 381H211V396C211 404.284 217.716 411 226 411C234.284 411 241 404.284 241 396V381H271V396C271 404.284 277.716 411 286 411C294.284 411 301 404.284 301 396V381H316C324.284 381 331 374.284 331 366C331 357.716 324.284 351 316 351ZM166 261C157.716 261 151 267.716 151 276C151 284.284 157.716 291 166 291C174.284 291 181 284.284 181 276C181 267.716 174.284 261 166 261ZM503.62 202.54L469.989 186L503.62 169.46C508.75 166.937 512 161.717 512 156C512 81.561 450.99 21 376 21C367.716 21 361 27.716 361 36V153.481C342.202 145.268 321.848 141 301 141H211C190.152 141 169.798 145.268 151 153.481V36C151 27.716 144.284 21 136 21C61.01 21 0 81.561 0 156C0 161.717 3.25 166.937 8.38 169.46L42.011 186L8.38 202.54C3.25 205.063 0 210.283 0 216C0 236.038 8.022 254.915 22.589 269.153C33.332 279.654 46.608 286.639 61.008 289.515C60.514 339.621 85.046 386.375 125.96 414.58L247.487 498.35C250.05 500.117 253.024 501 256 501C258.976 501 261.95 500.117 264.513 498.35L386.041 414.58C427.808 385.788 451.532 338.51 450.991 289.405C465.348 286.471 478.575 279.548 489.259 269.201C503.924 254.999 512 236.105 512 216C512 210.283 508.75 205.063 503.62 202.54ZM468.388 247.65C459.502 256.255 447.712 260.994 435.187 260.994C435.184 260.994 435.177 260.994 435.176 260.994C426.25 260.994 419.284 268.757 420.267 277.643C420.753 282.043 421 286.537 421 291C421 330.476 401.566 367.441 369.015 389.88L256 467.782L142.986 389.88C110.435 367.44 91 330.476 91 291C91 286.544 91.247 282.05 91.733 277.641C92.736 268.556 85.455 260.863 76.726 260.995L76 261C54.161 261 35.29 245.19 30.94 224.876L82.62 199.46C87.75 196.937 91 191.717 91 186C91 180.283 87.75 175.063 82.62 172.54L30.398 146.857C34.66 98.16 72.624 58.865 121 52.048V178.734C121 184.271 124.051 189.358 128.935 191.966C133.821 194.574 139.743 194.28 144.344 191.199C164.084 177.984 187.133 171 211 171H301C324.867 171 347.916 177.984 367.656 191.198C372.257 194.278 378.179 194.572 383.065 191.965C387.949 189.357 391 184.27 391 178.733V52.048C439.376 58.865 477.34 98.16 481.602 146.857L429.38 172.54C424.25 175.063 421 180.283 421 186C421 191.717 424.25 196.937 429.38 199.46L481.084 224.888C479.298 233.429 474.942 241.303 468.388 247.65ZM346 261C337.716 261 331 267.716 331 276C331 284.284 337.716 291 346 291C354.284 291 361 284.284 361 276C361 267.716 354.284 261 346 261Z"
    fill="#fff" />
</svg>