<svg width="512" height="512" viewBox="0 0 512 512" fill="none" xmlns="http://www.w3.org/2000/svg">
  <g clip-path="url(#clip0)">
    <path
      d="M412.284 5.18308C385.706 3.62808 359.891 12.0811 339.613 28.6451C326.554 20.3641 311.213 16.3101 295.451 17.1271C281.193 17.8661 267.573 22.5471 256 30.5451C244.427 22.5471 230.808 17.8661 216.549 17.1271C200.814 16.3111 185.459 20.3601 172.4 28.6371C152.089 12.0491 126.219 3.60008 99.583 5.19108C42.921 8.57708 0 58.9511 0 115.035C0 213.267 29.97 287.736 31.77 294.743C33.812 300.868 39.544 305 46 305C99.228 305 124.042 283.679 151 252.437V290C151 331.355 117.355 365 76 365C67.716 365 61 371.716 61 380C61 388.284 67.716 395 76 395C133.897 395 181 347.897 181 290V284.897C213.404 329.774 210.858 381.083 211 382C211 456.439 271.561 517 346 517C354.284 517 361 510.284 361 502V457C361 450.117 356.315 444.117 349.638 442.448C321 435.289 301 409.672 301 380.153C301 345.435 311.964 311.258 331 284.896V289.999C331 347.896 378.103 394.999 436 394.999C444.284 394.999 451 388.283 451 379.999C451 371.715 444.284 364.999 436 364.999C394.645 364.999 361 331.354 361 289.999V252.437C387.959 283.678 412.774 304.999 466 304.999C472.456 304.999 478.188 300.868 480.23 294.742C481.973 287.955 512 212.616 512 115.004C512 58.8561 468.98 8.49908 412.284 5.18308ZM455.307 274.641C417.747 271.989 401.765 254.599 375.04 222.591C377.144 217.015 378.861 211.273 380.167 205.397L390.302 159.788C394.21 142.204 394.406 124.452 390.883 107.027C389.242 98.9081 381.33 93.6561 373.209 95.2971C365.089 96.9391 359.837 104.852 361.479 112.972C364.165 126.257 364.009 139.819 361.017 153.281L350.882 198.89C346.861 216.982 337.753 233.428 324.543 246.448C290.516 279.985 271 328.719 271 380.153C271 419.443 295.148 454.02 331 467.942V485.93C280.183 478.63 241 434.804 241 381.998C240.724 380.554 245.982 304.129 187.456 246.444C174.247 233.424 165.14 216.98 161.118 198.888L150.983 153.279C147.992 139.817 147.837 126.255 150.522 112.969C152.163 104.849 146.91 96.9361 138.79 95.2951C130.669 93.6541 122.757 98.9061 121.116 107.026C117.595 124.451 117.791 142.202 121.698 159.786L131.833 205.396C133.139 211.272 134.856 217.014 136.96 222.589C110.236 254.597 94.253 271.987 56.693 274.639C38.979 221.101 30 167.412 30 115.035C30 73.3311 62.018 37.4901 101.372 35.1381C123.697 33.8031 145.264 42.3211 160.548 58.5041C166.112 64.3971 175.353 64.8041 181.413 59.4211C201.64 41.4501 229.071 44.2821 245.393 60.6051C251.247 66.4591 260.75 66.4621 266.606 60.6051C282.556 44.6571 309.963 41.0721 330.591 59.4251C336.652 64.8131 345.896 64.4081 351.462 58.5131C366.726 42.3511 388.24 33.8181 410.531 35.1311C449.939 37.4371 482 73.2681 482 115.004C482 167.393 473.021 221.092 455.307 274.641ZM196 154.999C187.716 154.999 181 161.715 181 169.999C181 178.283 187.716 184.999 196 184.999C204.284 184.999 211 178.283 211 169.999C211 161.715 204.284 154.999 196 154.999ZM316 154.999C307.716 154.999 301 161.715 301 169.999C301 178.283 307.716 184.999 316 184.999C324.284 184.999 331 178.283 331 169.999C331 161.715 324.284 154.999 316 154.999Z"
      fill="#fff" />
  </g>
  <defs>
    <clipPath id="clip0">
      <rect width="512" height="512" fill="#fff" />
    </clipPath>
  </defs>
</svg>