<svg width="512" height="512" viewBox="0 0 512 512" fill="none" xmlns="http://www.w3.org/2000/svg">
  <path
    d="M196 300C187.716 300 181 306.716 181 315C181 323.284 187.716 330 196 330C204.284 330 211 323.284 211 315C211 306.716 204.284 300 196 300ZM316 150H437C478.355 150 512 116.355 512 75C512 66.716 505.284 60 497 60C488.716 60 482 66.716 482 75C482 99.813 461.813 120 437 120H375.959C382.775 110.941 387.571 100.291 389.72 88.72C424.542 82.253 451 51.667 451 15C451 6.716 444.284 0 436 0C427.716 0 421 6.716 421 15C421 34.556 408.461 51.239 391 57.43V45C391 36.716 384.284 30 376 30C367.716 30 361 36.716 361 45V75C361 99.813 340.813 120 316 120C291.187 120 271 140.187 271 165V180H241V165C241 140.187 220.813 120 196 120C171.187 120 151 99.813 151 75V45C151 36.716 144.284 30 136 30C127.716 30 121 36.716 121 45V57.43C103.539 51.239 91 34.556 91 15C91 6.716 84.284 0 76 0C67.716 0 61 6.716 61 15C61 51.667 87.458 82.253 122.28 88.72C124.429 100.291 129.225 110.942 136.041 120H75C50.187 120 30 99.813 30 75C30 66.716 23.284 60 15 60C6.716 60 0 66.716 0 75C0 116.355 33.645 150 75 150H196C204.271 150 211 156.729 211 165V181.073C188.116 184.346 167.055 195.034 150.966 211.465C131.4 191.497 104.53 180 76 180H46C37.716 180 31 186.716 31 195C31 248.098 70.617 292.118 121.846 299.05C124.749 324.501 134.66 353.015 144.295 380.735C154.966 411.434 166 443.179 166 467C166 491.813 186.187 512 211 512H301C325.813 512 346 491.813 346 467C346 441.24 357.12 409.981 367.875 379.751C377.483 352.742 387.368 324.956 390.199 299.044C441.408 292.093 481 248.084 481 195C481 186.716 474.284 180 466 180H436C407.471 180 380.6 191.497 361.034 211.465C344.945 195.035 323.883 184.347 301 181.073V165C301 156.729 307.729 150 316 150ZM348.531 243.493C351.309 247.676 355.996 250.192 361.018 250.194H361.026C366.045 250.194 370.732 247.684 373.513 243.506C387.478 222.525 410.838 210 436 210H449.493C442.524 244.191 412.219 270 376 270C367.716 270 361 276.716 361 285C361 309.567 350.125 340.135 339.609 369.696C328.002 402.324 316 436.063 316 467C316 475.271 309.271 482 301 482H271V441.213L296.606 415.607C302.464 409.749 302.464 400.252 296.606 394.394C290.749 388.536 281.251 388.536 275.393 394.394L256 413.787L236.606 394.394C230.749 388.536 221.251 388.536 215.393 394.394C209.535 400.252 209.535 409.749 215.393 415.607L241 441.213V482H211C202.729 482 196 475.271 196 467C196 438.114 184.121 403.937 172.632 370.885C161.997 340.289 151 308.65 151 285C151 276.716 144.284 270 136 270C99.781 270 69.476 244.191 62.507 210H76C101.163 210 124.522 222.525 138.487 243.505C141.268 247.684 145.955 250.193 150.974 250.193H150.982C156.004 250.191 160.691 247.675 163.469 243.492C177.397 222.521 200.773 210 226 210H286C311.227 210 334.603 222.521 348.531 243.493ZM316 330C324.284 330 331 323.284 331 315C331 306.716 324.284 300 316 300C307.716 300 301 306.716 301 315C301 323.284 307.716 330 316 330Z"
    fill="#fff" />
</svg>