<svg width="512" height="512" viewBox="0 0 512 512" fill="none" xmlns="http://www.w3.org/2000/svg">
  <g clip-path="url(#clip0)">
    <path
      d="M196 337C187.716 337 181 343.716 181 352C181 360.284 187.716 367 196 367C204.284 367 211 360.284 211 352C211 343.716 204.284 337 196 337ZM512 262C512 257.964 510.374 254.099 507.489 251.277L481.752 226.103L497.647 194.592C501.356 187.238 498.442 178.268 491.119 174.499L459.584 158.27L464.99 123.218C466.245 115.078 460.702 107.448 452.572 106.126L417.566 100.436L411.876 65.43C410.555 57.3 402.926 51.762 394.784 53.012L359.732 58.418L343.503 26.883C339.734 19.56 330.763 16.647 323.41 20.355L292.051 36.173L266.876 9.669C264.044 6.688 260.112 5 256 5C251.888 5 247.956 6.688 245.124 9.669L219.951 36.171L188.592 20.353C181.24 16.644 172.269 19.559 168.499 26.881L152.27 58.417L117.218 53.011C109.076 51.75 101.447 57.299 100.126 65.429L94.436 100.435L59.43 106.125C51.3 107.446 45.757 115.077 47.012 123.217L52.418 158.269L20.883 174.498C13.559 178.267 10.645 187.237 14.355 194.591L30.25 226.102L4.511 251.277C1.626 254.099 0 257.964 0 262C0 266.036 1.626 269.901 4.511 272.723L30.248 297.897L14.353 329.408C12.244 333.589 12.208 338.514 14.257 342.725C16.306 346.935 20.203 349.948 24.794 350.87L130.604 372.108C134.961 382.991 140.747 393.341 147.942 402.934C155.019 412.37 211.185 487.251 219.985 498.983C228.447 510.265 241.91 517 256 517C270.089 517 283.552 510.265 292.014 498.984C301.72 486.044 356.307 413.267 364.057 402.935C371.252 393.342 377.037 382.992 381.395 372.109L487.205 350.871C491.796 349.95 495.693 346.937 497.742 342.726C499.79 338.515 499.755 333.589 497.646 329.409L481.751 297.898L507.488 272.724C510.374 269.901 512 266.036 512 262ZM268.015 480.983C261.996 489.009 250.009 489.014 243.985 480.983L231.462 464.288C238.7 459.582 247.213 457 256 457C264.787 457 273.3 459.582 280.537 464.288L268.015 480.983ZM364.668 289.067C360.466 292.484 358.337 297.974 359.377 303.491C360.454 309.556 361 315.782 361 322C361 344.907 353.705 366.74 340.059 384.934L298.549 440.275C286.139 431.728 271.325 427 256 427C240.674 427 225.861 431.728 213.452 440.275L171.942 384.934C157.822 366.108 151 344.083 151 322C151 315.737 151.554 309.466 152.646 303.362C153.643 297.795 151.429 292.395 147.329 289.065C134.462 278.079 125.819 263.259 122.508 247H136C145.575 247 154.887 248.773 163.686 252.271C169.273 254.746 176.046 253.632 180.542 248.985L180.547 248.98C200.509 228.359 227.307 217 256 217C284.693 217 311.489 228.357 331.451 248.979C331.452 248.98 331.456 248.984 331.458 248.986C335.956 253.633 342.73 254.747 348.317 252.271C357.116 248.774 366.426 247.001 376 247.001H389.491C386.181 263.26 377.535 278.082 364.668 289.067ZM450.022 301.606L461.99 325.333L389.823 339.819C390.591 333.956 391 328.011 391 322C391 316.785 390.7 311.561 390.104 306.39C409.836 286.743 421 260.08 421 232C421 223.716 414.284 217 406 217H376C365.875 217 355.947 218.423 346.372 221.239C341.862 216.586 307.749 187 256 187C204.253 187 170.14 216.585 165.628 221.239C156.053 218.423 146.125 217 136 217H106C97.716 217 91 223.716 91 232C91 260.08 102.164 286.743 121.896 306.39C121.3 311.56 121 316.784 121 322C121 328.011 121.409 333.956 122.177 339.819L50.01 325.333L61.978 301.606C64.922 295.77 63.748 288.698 59.074 284.127L36.452 262L59.075 239.872C63.748 235.301 64.923 228.23 61.979 222.393L47.84 194.365L75.753 180C81.491 177.047 84.697 170.754 83.713 164.376L78.928 133.35L109.914 128.313C116.284 127.277 121.278 122.284 122.313 115.914L127.35 84.928L158.376 89.713C164.756 90.695 171.046 87.49 174 81.753L188.365 53.84L216.394 67.978C222.303 70.958 229.467 69.715 234.025 64.916L256 41.78L277.975 64.916C282.533 69.714 289.697 70.958 295.606 67.978L323.635 53.84L338 81.753C340.954 87.491 347.25 90.696 353.624 89.713L384.65 84.928L389.687 115.914C390.723 122.284 395.716 127.277 402.086 128.313L433.071 133.35L428.286 164.376C427.302 170.754 430.509 177.046 436.246 180L464.159 194.365L450.021 222.394C447.077 228.23 448.251 235.302 452.925 239.873L475.548 262L452.925 284.128C448.252 288.699 447.078 295.77 450.022 301.606ZM316 337C307.716 337 301 343.716 301 352C301 360.284 307.716 367 316 367C324.284 367 331 360.284 331 352C331 343.716 324.284 337 316 337Z"
      fill="#fff" />
  </g>
  <defs>
    <clipPath id="clip0">
      <rect width="512" height="512" fill="#fff" />
    </clipPath>
  </defs>
</svg>