<svg width="512" height="512" viewBox="0 0 512 512" fill="none" xmlns="http://www.w3.org/2000/svg">
  <g clip-path="url(#clip0)">
    <path
      d="M166 226C157.716 226 151 232.716 151 241C151 249.284 157.716 256 166 256C174.284 256 181 249.284 181 241C181 232.716 174.284 226 166 226ZM307.828 266.466C301.872 242.64 280.559 226 256 226C231.441 226 210.129 242.64 204.172 266.466L193.383 309.62C184.959 343.318 210.421 376 245.212 376H266.789C301.523 376 327.056 343.372 318.617 309.62L307.828 266.466ZM266.789 346H245.212C229.983 346 218.788 331.694 222.488 316.896L233.277 273.742C235.888 263.296 245.232 256 256 256C266.768 256 276.112 263.296 278.725 273.742L289.513 316.896C293.205 331.672 282.042 346 266.789 346ZM346 226C337.716 226 331 232.716 331 241C331 249.284 337.716 256 346 256C354.284 256 361 249.284 361 241C361 232.716 354.284 226 346 226ZM391 46C346.546 46 306.412 70.214 285.558 108.644C266.126 105.13 245.874 105.13 226.444 108.644C205.588 70.214 165.454 46 121 46C54.28 46 0 99.832 0 166C0 202.719 17.207 237.212 47.207 260.634C51.309 263.836 56.778 264.683 61.655 262.874C66.534 261.064 70.126 256.855 71.146 251.752L73.066 242.15C79.048 245.925 85.459 248.986 92.171 251.262C91.393 257.799 91 264.397 91 271V301C91 366.858 138.477 422.273 202.83 433.396C212.965 453.229 233.286 466 256 466C278.714 466 299.034 453.229 309.17 433.396C373.523 422.273 421 366.858 421 301V271C421 264.396 420.607 257.798 419.828 251.262C426.541 248.987 432.951 245.926 438.933 242.15L440.853 251.753C441.874 256.856 445.466 261.065 450.344 262.875C455.226 264.687 460.693 263.837 464.792 260.635C494.794 237.212 512 202.719 512 166C512 99.832 457.72 46 391 46ZM464.692 217.975L463.305 211.043C462.172 205.38 457.889 200.871 452.292 199.447C446.699 198.024 440.779 199.939 437.079 204.374C427.732 215.574 414.725 222.99 400.453 225.257C392.003 226.599 386.364 234.749 388.126 243.15C390.033 252.242 391 261.612 391 271V301C391 354.494 350.613 399.123 297.056 404.81C291.158 405.436 286.182 409.48 284.363 415.126C280.34 427.611 268.942 436 256 436C243.058 436 231.66 427.611 227.638 415.126C225.819 409.48 220.844 405.436 214.945 404.81C161.387 399.123 121 354.494 121 301V271C121 261.614 121.967 252.244 123.874 243.149C125.629 234.774 120.024 226.604 111.546 225.257C97.274 222.99 84.267 215.574 74.921 204.374C72.031 200.911 67.79 198.984 63.404 198.984C56.28 198.984 50.102 204.009 48.696 211.043L47.309 217.975C36.23 202.709 30 184.466 30 166C30 116.374 70.822 76 121 76C157.548 76 190.202 97.818 204.189 131.583C207.055 138.501 214.587 142.247 221.832 140.357C244.011 134.575 267.989 134.575 290.169 140.357C297.41 142.248 304.944 138.502 307.812 131.583C321.799 97.818 354.452 76 391 76C441.178 76 482 116.374 482 166C482 184.466 475.77 202.709 464.692 217.975Z"
      fill="#fff" />
  </g>
  <defs>
    <clipPath id="clip0">
      <rect width="512" height="512" fill="#fff" />
    </clipPath>
  </defs>
</svg>