<svg width="512" height="512" viewBox="0 0 512 512" fill="none" xmlns="http://www.w3.org/2000/svg">
  <path
    d="M316 151C324.284 151 331 144.284 331 136C331 127.716 324.284 121 316 121C307.716 121 301 127.716 301 136C301 144.284 307.716 151 316 151ZM196 151C204.284 151 211 144.284 211 136C211 127.716 204.284 121 196 121C187.716 121 181 127.716 181 136C181 144.284 187.716 151 196 151ZM256 0C148.477 0 61 87.925 61 196V316C61 424.075 148.477 512 256 512C363.523 512 451 424.075 451 316V196C451 87.925 363.523 0 256 0ZM421 316C421 407.533 346.981 482 256 482C165.019 482 91 407.533 91 316V196C91 104.467 165.019 30 256 30C346.981 30 421 104.467 421 196V316ZM316 181H196C154.645 181 121 214.645 121 256V286C121 322.219 146.808 352.522 181 359.491V406C181 414.284 187.716 421 196 421C204.284 421 211 414.284 211 406V359.491C229.288 355.764 245.175 345.362 256 330.948C266.825 345.362 282.712 355.764 301 359.491V406C301 414.284 307.716 421 316 421C324.284 421 331 414.284 331 406V359.491C365.192 352.523 391 322.22 391 286V256C391 214.645 357.355 181 316 181ZM361 286C361 310.813 340.813 331 316 331C293.161 331 274.256 313.894 271.389 291.823L296.606 266.606C302.464 260.748 302.464 251.251 296.606 245.393C290.749 239.535 281.251 239.535 275.393 245.393L256 264.787L236.606 245.394C230.749 239.536 221.251 239.536 215.393 245.394C209.535 251.252 209.535 260.749 215.393 266.607L240.61 291.824C237.744 313.894 218.839 331 196 331C171.187 331 151 310.813 151 286V256C151 231.187 171.187 211 196 211H316C340.813 211 361 231.187 361 256V286Z"
    fill="#fff" />
</svg>