<svg width="512" height="512" viewBox="0 0 512 512" fill="none" xmlns="http://www.w3.org/2000/svg">
  <g clip-path="url(#clip0)">
    <path
      d="M195.998 301.992C187.713 301.992 180.997 308.708 180.997 316.992C180.997 325.277 187.713 331.993 195.998 331.993C204.282 331.993 210.998 325.277 210.998 316.992C210.998 308.708 204.282 301.992 195.998 301.992ZM286.001 421.996C279.578 421.996 274.101 417.93 271.967 412.243L296.609 387.601C302.467 381.743 302.467 372.245 296.609 366.387C290.751 360.529 281.253 360.529 275.395 366.387L256 385.781L236.605 366.387C230.748 360.529 221.25 360.529 215.391 366.387C209.533 372.245 209.533 381.743 215.391 387.601L240.033 412.243C237.899 417.93 232.422 421.996 225.999 421.996C217.714 421.996 210.998 428.713 210.998 436.997C210.998 445.281 217.714 451.998 225.999 451.998C237.514 451.998 248.033 447.65 256 440.511C263.967 447.65 274.486 451.998 286.001 451.998C294.285 451.998 301.002 445.281 301.002 436.997C301.002 428.713 294.285 421.996 286.001 421.996ZM362.951 240.121C376.698 219.444 389.569 193.355 399.777 165.309C412.645 129.955 420.16 94.4616 420.94 65.3665C422.124 21.1768 407.323 6.4232 394.697 1.82802C382.065 -2.76815 361.331 -0.918081 334.28 34.0133C316.731 56.6752 299.944 88.7274 287.008 124.266C279.761 144.176 274.159 164.201 270.535 183.036C260.805 181.641 251.192 181.641 241.462 183.036C237.838 164.202 232.236 144.177 224.99 124.266C212.055 88.7274 195.267 56.6762 177.718 34.0133C150.669 -0.918081 129.933 -2.77015 117.302 1.82802C104.676 6.4232 89.8745 21.1768 91.0595 65.3665C91.8395 94.4616 99.3548 129.955 112.223 165.309C122.431 193.355 135.301 219.443 149.049 240.121C114.467 280.377 90.9935 335.07 90.9935 376.995C90.9935 451.437 165.015 512 256 512C346.985 512 421.006 451.437 421.006 376.995C421.006 335.07 397.533 280.377 362.951 240.121ZM352.648 450.098C326.933 470.669 292.608 481.999 256 481.999C219.392 481.999 185.067 470.669 159.352 450.098C134.617 430.31 120.995 404.348 120.995 376.995C120.995 339.483 145.411 286.782 179.049 251.683C184.125 246.387 184.626 238.195 180.233 232.32C165.541 212.673 151.401 185.231 140.415 155.048C128.857 123.291 121.995 91.6345 121.092 65.9115C120.161 39.3655 126.061 30.7312 127.549 30.0241C127.628 30.0061 127.726 29.9961 127.845 29.9961C130.148 29.9961 139.898 33.7493 155.08 53.7951C170.394 74.0148 185.209 102.686 196.799 134.527C205.424 158.227 211.504 181.946 214.38 203.12C215.623 212.277 224.785 218.145 233.623 215.448C241.144 213.153 248.674 211.989 256 211.989C263.326 211.989 270.856 213.153 278.377 215.448C287.214 218.147 296.377 212.274 297.62 203.12C300.496 181.946 306.575 158.227 315.201 134.527C326.791 102.686 341.606 74.0148 356.92 53.7951C372.884 32.7162 382.848 29.6591 384.428 30.0161C385.938 30.7312 391.839 39.3645 390.907 65.9115C390.005 91.6355 383.143 123.292 371.584 155.049C360.598 185.232 346.457 212.675 331.767 232.321C327.374 238.196 327.875 246.387 332.951 251.684C366.59 286.783 391.005 339.484 391.005 376.996C391.005 404.348 377.383 430.31 352.648 450.098ZM316.002 301.992C307.718 301.992 301.002 308.708 301.002 316.992C301.002 325.277 307.718 331.993 316.002 331.993C324.287 331.993 331.003 325.277 331.003 316.992C331.003 308.708 324.287 301.992 316.002 301.992Z"
      fill="#fff" />
  </g>
  <defs>
    <clipPath id="clip0">
      <rect width="512" height="512" fill="#fff" />
    </clipPath>
  </defs>
</svg>