<svg width="512" height="512" viewBox="0 0 512 512" fill="none" xmlns="http://www.w3.org/2000/svg">
  <path
    d="M505.18 212.428L390.999 138.119V120.001C390.999 103.459 404.457 90.0013 420.999 90.0013C437.541 90.0013 450.998 103.459 450.998 120.001C450.998 128.285 457.714 135.001 465.998 135.001C474.282 135.001 480.998 128.285 480.998 120.001V90.0013C480.998 40.3756 440.625 0.00195312 390.999 0.00195312C341.373 0.00195312 301 40.3756 301 90.0013V91.0732C296.062 90.3652 291.052 90.0013 286 90.0013H226C220.947 90.0013 215.937 90.3643 211 91.0722V90.0013C211 40.3756 170.627 0.00195312 121.001 0.00195312C71.3754 0.00195312 31.0017 40.3756 31.0017 90.0013V120.001C31.0017 128.285 37.7176 135.001 46.0016 135.001C54.2855 135.001 61.0015 128.285 61.0015 120.001C61.0015 103.459 74.4594 90.0013 91.0012 90.0013C107.543 90.0013 121.001 103.459 121.001 120.001V138.119L6.81989 212.428C-0.118057 216.943 -2.08704 226.225 2.42092 233.168C17.1168 255.803 39.8546 271.711 66.4434 277.963C85.3053 282.398 104.649 281.645 122.635 275.97C125.513 294.313 132.158 311.964 142.283 327.908L188.181 399.309C190.638 403.13 193.611 406.483 196.96 409.331C196.332 412.829 195.999 416.388 195.999 419.997C195.999 433.619 204.24 452.065 221.192 476.392C232.753 492.981 244.162 506.24 244.643 506.796C247.492 510.098 251.638 511.996 255.999 511.996C260.36 511.996 264.506 510.098 267.355 506.796C267.835 506.24 279.245 492.981 290.806 476.392C307.759 452.065 315.998 433.619 315.998 419.997C315.998 416.388 315.665 412.829 315.037 409.33C318.387 406.482 321.36 403.129 323.817 399.307L369.762 327.836C379.853 311.943 386.489 294.307 389.365 275.969C407.353 281.644 426.695 282.398 445.556 277.961C472.145 271.709 494.882 255.8 509.578 233.165C514.086 226.225 512.118 216.943 505.18 212.428ZM330.999 90.0013C330.999 56.9175 357.915 30.0017 390.999 30.0017C415.289 30.0017 436.254 44.5106 445.683 65.3164C438.151 61.9025 429.793 60.0015 420.999 60.0015C388.379 60.0015 361.774 86.1723 361.034 118.617C344.669 108.182 340.631 104.752 330.999 100.154V90.0013ZM91.0012 60.0015C82.2073 60.0015 73.8494 61.9025 66.3164 65.3164C75.7453 44.5096 96.7112 30.0017 121.001 30.0017C154.085 30.0017 181.001 56.9175 181.001 90.0013V100.148C171.42 104.722 167.487 108.082 150.966 118.617C150.226 86.1723 123.621 60.0015 91.0012 60.0015ZM256.006 473.239C240.048 452.482 226 429.345 226 419.999H286C286 429.615 271.922 452.594 256.006 473.239ZM383.492 240.805C378.851 238.128 373.135 238.13 368.495 240.811C363.856 243.491 360.998 248.442 360.998 253.799V255C360.998 275.066 355.27 294.693 344.48 311.688L298.582 383.086C295.799 387.415 291.095 389.999 285.999 389.999H270.999V351.212L296.605 325.606C302.463 319.748 302.463 310.252 296.605 304.394C290.748 298.536 281.25 298.536 275.392 304.394L255.998 323.786L236.604 304.394C230.747 298.536 221.249 298.536 215.391 304.394C209.533 310.252 209.533 319.748 215.391 325.606L240.997 351.212V389.999H225.997C220.901 389.999 216.197 387.415 213.414 383.087L167.561 311.758C156.725 294.694 150.998 275.067 150.998 255V253.799C150.998 248.442 148.141 243.49 143.501 240.81C138.866 238.133 133.149 238.126 128.504 240.805C98.7082 257.988 60.5655 252.08 37.0567 228.541C43.7236 224.214 168.486 143.006 185.055 132.223C197.178 124.227 211.335 120.001 225.996 120.001H285.996C300.657 120.001 314.814 124.227 327.014 132.272C349.338 146.8 455.52 215.941 474.936 228.541C451.432 252.079 413.29 257.987 383.492 240.805ZM196 210C187.716 210 181.001 216.716 181.001 225C181.001 233.284 187.716 240 196 240C204.284 240 211 233.284 211 225C211 216.716 204.284 210 196 210ZM315.999 210C307.716 210 301 216.716 301 225C301 233.284 307.716 240 315.999 240C324.283 240 330.999 233.284 330.999 225C330.999 216.716 324.283 210 315.999 210Z"
    fill="#fff" />
</svg>