<svg width="512" height="512" viewBox="0 0 512 512" fill="none" xmlns="http://www.w3.org/2000/svg">
  <path
    d="M196 212C187.716 212 181 218.716 181 227C181 235.284 187.716 242 196 242C204.284 242 211 235.284 211 227C211 218.716 204.284 212 196 212ZM286 332H226C217.716 332 211 338.716 211 347C211 355.284 217.716 362 226 362H286C294.284 362 301 355.284 301 347C301 338.716 294.284 332 286 332ZM413.454 232.05L353.467 142.07C353.465 142.067 353.463 142.064 353.462 142.061C345.088 129.499 331.084 122 316 122C301.327 122 290.16 126.581 280.308 130.622C271.964 134.044 264.759 137 256 137C247.241 137 240.036 134.044 231.692 130.622C221.84 126.581 210.673 122 196 122C180.919 122 166.918 129.497 158.545 142.053C158.543 142.055 158.541 142.057 158.54 142.06C152.083 151.745 104.263 223.475 98.54 232.061C93.607 239.458 91 248.083 91 257C91 281.813 111.187 302 136 302C144.271 302 151 308.729 151 317V347C151 404.897 198.103 452 256 452C313.897 452 361 404.897 361 347V317C361 308.729 367.729 302 376 302C400.813 302 421 281.813 421 257C421 248.082 418.393 239.458 413.46 232.059C413.458 232.056 413.456 232.054 413.454 232.05ZM376 272C351.187 272 331 292.187 331 317V347C331 388.355 297.355 422 256 422C214.645 422 181 388.355 181 347V317C181 292.187 160.813 272 136 272C127.729 272 121 265.271 121 257C121 252.334 123.036 249.691 123.501 248.701L183.501 158.701C183.501 158.701 183.502 158.7 183.502 158.699C186.299 154.504 190.971 152 196 152C204.759 152 211.964 154.956 220.308 158.378C230.16 162.419 241.327 167 256 167C270.673 167 281.84 162.419 291.692 158.378C300.036 154.956 307.241 152 316 152C321.029 152 325.701 154.505 328.498 158.7C328.5 158.702 328.502 158.704 328.503 158.707L388.493 248.692C388.495 248.695 388.497 248.698 388.498 248.701C390.134 251.155 390.999 254.024 390.999 256.999C391 265.271 384.271 272 376 272ZM226 302C234.284 302 241 295.284 241 287C241 278.716 234.284 272 226 272C217.716 272 211 278.716 211 287C211 295.284 217.716 302 226 302ZM438.537 120.181C384.865 42.681 320.039 0 256 0C191.961 0 127.135 42.681 73.463 120.181C29.522 183.628 0 262.724 0 317C0 369.887 27.285 419.359 76.828 456.304C124.991 492.22 188.623 512 256 512C323.378 512 387.009 492.22 435.173 456.304C484.716 419.359 512 369.887 512 317C512 262.724 482.478 183.628 438.537 120.181ZM417.239 432.254C374.221 464.333 316.959 482 256 482C195.042 482 137.779 464.333 94.761 432.254C53 401.112 30 360.181 30 317C30 222.497 134.612 30 256 30C377.388 30 482 222.497 482 317C482 360.181 459.001 401.112 417.239 432.254ZM316 212C307.716 212 301 218.716 301 227C301 235.284 307.716 242 316 242C324.284 242 331 235.284 331 227C331 218.716 324.284 212 316 212ZM286 272C277.716 272 271 278.716 271 287C271 295.284 277.716 302 286 302C294.284 302 301 295.284 301 287C301 278.716 294.284 272 286 272Z"
    fill="#fff" />
</svg>