<svg width="512" height="512" viewBox="0 0 512 512" fill="none" xmlns="http://www.w3.org/2000/svg">
  <g clip-path="url(#clip0)">
    <path
      d="M226 316C217.716 316 211 322.716 211 331C211 339.284 217.716 346 226 346C234.284 346 241 339.284 241 331C241 322.716 234.284 316 226 316ZM196 211C204.284 211 211 204.284 211 196C211 187.716 204.284 181 196 181C187.716 181 181 187.716 181 196C181 204.284 187.716 211 196 211ZM316 211C324.284 211 331 204.284 331 196C331 187.716 324.284 181 316 181C307.716 181 301 187.716 301 196C301 204.284 307.716 211 316 211ZM286 316C277.716 316 271 322.716 271 331C271 339.284 277.716 346 286 346C294.284 346 301 339.284 301 331C301 322.716 294.284 316 286 316ZM376 271C367.716 271 361 277.716 361 286C361 294.271 354.271 301 346 301H341.527L313.299 267.605C299.007 250.697 278.122 241 256 241C233.878 241 212.993 250.697 198.701 267.605L170.473 301H166C157.729 301 151 294.271 151 286C151 277.716 144.284 271 136 271C127.716 271 121 277.716 121 286C121 306.446 134.711 323.739 153.418 329.197C151.836 334.62 151 340.274 151 346C151 379.084 177.916 406 211 406H301C334.084 406 361 379.084 361 346C361 340.274 360.165 334.62 358.582 329.197C377.289 323.739 391 306.446 391 286C391 277.716 384.284 271 376 271ZM301 376H211C185.421 376 171.753 345.956 188.073 326.65H188.074L221.613 286.972C230.192 276.821 242.727 271 256 271C269.273 271 281.808 276.821 290.388 286.972L323.928 326.65C340.245 345.954 326.583 376 301 376ZM497 31H467C420.358 31 375.466 50.801 344.356 84.549C317.505 69.105 287.223 61 256 61C224.778 61 194.496 69.105 167.645 84.549C136.535 50.801 91.642 31 45 31H15C6.716 31 0 37.716 0 46V136C0 160.785 12.443 183.962 33.285 197.998C46.967 207.212 62.713 211.592 78.777 210.97L66.357 251.333C49.62 305.729 59.413 363.184 93.225 408.964C127.037 454.744 179.071 481 235.984 481H276.015C332.928 481 384.961 454.744 418.774 408.964C452.587 363.184 462.379 305.729 445.642 251.333L433.222 210.97C449.285 211.595 465.034 207.212 478.714 197.998C499.557 183.962 512 160.785 512 136V46C512 37.716 505.284 31 497 31ZM482 136C482 150.788 474.507 164.663 461.957 173.114C449.554 181.468 434.189 183.229 419.42 178.087C417.225 176.671 414.65 175.82 411.917 175.706C405.583 175.44 399.742 179.203 397.372 185.099C397.348 185.245 394.44 191.122 397.764 197.739L416.969 260.154C430.877 305.356 422.74 353.098 394.643 391.14C366.546 429.182 323.309 451 276.016 451H235.985C188.693 451 145.455 429.182 117.358 391.14C89.261 353.098 81.124 305.356 95.032 260.155L114.235 197.745C117.587 191.076 114.639 185.219 114.613 185.062C112.23 179.18 106.428 175.417 100.063 175.708C97.336 175.826 94.769 176.676 92.58 178.089C77.808 183.229 62.447 181.468 50.044 173.115C37.493 164.663 30 150.788 30 136V61H45C87.047 61 127.325 80.567 152.745 113.341C157.6 119.601 166.488 121.008 173.037 116.549C197.595 99.834 226.283 91 256 91C285.718 91 314.406 99.834 338.964 116.548C345.516 121.006 354.402 119.601 359.256 113.34C384.676 80.567 424.954 61 467 61H482V136Z"
      fill="#fff" />
  </g>
  <defs>
    <clipPath id="clip0">
      <rect width="512" height="512" fill="#fff" />
    </clipPath>
  </defs>
</svg>