<svg width="512" height="512" viewBox="0 0 512 512" fill="none" xmlns="http://www.w3.org/2000/svg">
  <path
    d="M346 60C337.716 60 331 66.716 331 75C331 83.284 337.716 90 346 90C354.284 90 361 83.284 361 75C361 66.716 354.284 60 346 60ZM226 150H286C294.284 150 301 143.284 301 135C301 126.716 294.284 120 286 120H226C217.716 120 211 126.716 211 135C211 143.284 217.716 150 226 150ZM420.634 67.56C416.886 29.686 384.844 0 346 0C309.781 0 279.477 25.809 272.507 60H239.493C232.523 25.809 202.219 0 166 0C127.156 0 95.114 29.686 91.366 67.56C38.849 85.966 0 135.745 0 195C0 252.897 47.552 300 106 300H151V437C151 478.355 184.645 512 226 512H286C327.355 512 361 478.355 361 437C361 422.21 361 315.556 361 300H406C464.448 300 512 252.897 512 195C512 135.915 473.309 86.021 420.634 67.56ZM106 270C69.298 270 38.591 244.192 31.529 210H76C112.22 210 142.522 235.808 149.491 270H106ZM406 270H362.509C369.477 235.808 399.78 210 436 210H480.471C473.409 244.192 442.702 270 406 270ZM436 180C378.103 180 331 227.103 331 285V437C331 461.813 310.813 482 286 482H226C201.187 482 181 461.813 181 437C181 404.277 181 318.989 181 285C181 227.103 133.897 180 76 180H31.109C37.152 138.618 67.821 104.051 109.839 93.281C116.808 91.495 121.527 85.012 121.086 77.832C119.492 51.792 140.191 30 166 30C190.813 30 211 50.187 211 75C211 83.284 217.716 90 226 90H286C294.284 90 301 83.284 301 75C301 50.187 321.187 30 346 30C371.765 30 392.51 51.747 390.913 77.832C390.472 85.013 395.191 91.495 402.16 93.281C444.178 104.051 474.847 138.618 480.89 180H436ZM166 60C157.716 60 151 66.716 151 75C151 83.284 157.716 90 166 90C174.284 90 181 83.284 181 75C181 66.716 174.284 60 166 60ZM316 180H196C187.716 180 181 186.716 181 195C181 203.284 187.716 210 196 210H316C324.284 210 331 203.284 331 195C331 186.716 324.284 180 316 180ZM226 422C217.716 422 211 428.716 211 437C211 445.284 217.716 452 226 452C234.284 452 241 445.284 241 437C241 428.716 234.284 422 226 422ZM286 240H226C217.716 240 211 246.716 211 255C211 263.284 217.716 270 226 270H286C294.284 270 301 263.284 301 255C301 246.716 294.284 240 286 240ZM286 422C277.716 422 271 428.716 271 437C271 445.284 277.716 452 286 452C294.284 452 301 445.284 301 437C301 428.716 294.284 422 286 422Z"
    fill="#fff" />
</svg>