<svg width="512" height="512" viewBox="0 0 512 512" fill="none" xmlns="http://www.w3.org/2000/svg">
  <path
    d="M226 286.5C234.284 286.5 241 279.784 241 271.5C241 263.216 234.284 256.5 226 256.5C217.716 256.5 211 263.216 211 271.5C211 279.784 217.716 286.5 226 286.5ZM196 196.5C187.716 196.5 181 203.216 181 211.5C181 219.784 187.716 226.5 196 226.5C204.284 226.5 211 219.784 211 211.5C211 203.216 204.284 196.5 196 196.5ZM286 316.5H226C217.716 316.5 211 323.216 211 331.5C211 339.784 217.716 346.5 226 346.5H286C294.284 346.5 301 339.784 301 331.5C301 323.216 294.284 316.5 286 316.5ZM316 196.5C307.716 196.5 301 203.216 301 211.5C301 219.784 307.716 226.5 316 226.5C324.284 226.5 331 219.784 331 211.5C331 203.216 324.284 196.5 316 196.5ZM338.893 108.989C309.59 102.62 280.029 108.7 256 125.683C231.971 108.7 202.407 102.62 173.107 108.989C132.753 117.758 100.523 150.824 92.907 191.27C84.495 235.95 104.346 279.43 143.482 302.041C148.119 304.72 151 309.704 151 315.047V331.5C151 389.397 198.103 436.5 256 436.5C313.897 436.5 361 389.397 361 331.5V315.047C361 309.703 363.881 304.72 368.519 302.041C407.655 279.43 427.506 235.95 419.093 191.27C411.477 150.824 379.248 117.758 338.893 108.989ZM353.511 276.064C339.626 284.085 331 299.023 331 315.047V331.5C331 372.855 297.355 406.5 256 406.5C214.645 406.5 181 372.855 181 331.5V315.047C181 299.023 172.375 284.086 158.49 276.064C130.537 259.914 116.367 228.81 122.389 196.821C127.804 168.064 150.746 144.548 179.477 138.304C203.369 133.114 227.621 139.481 245.96 156.001C251.666 161.141 260.333 161.141 266.039 156.001C284.309 139.543 308.541 133.092 332.522 138.304C361.253 144.548 384.195 168.064 389.61 196.821C395.634 228.81 381.464 259.915 353.511 276.064ZM512 90.5C512 49.145 478.355 15.5 437 15.5C413.857 15.5 391.338 27.016 376.978 45.265C342.041 26.406 300.546 16.5 256 16.5C211.455 16.5 169.96 26.406 135.022 45.265C120.662 27.016 98.142 15.5 75 15.5C33.645 15.5 0 49.145 0 90.5C0 118.65 16.595 144.881 41.128 157.878C34.401 179.192 31 202.206 31 226.5C31 290.852 54.592 357.693 95.727 409.884C135.726 460.634 192.148 496.5 256 496.5C319.853 496.5 376.274 460.634 416.273 409.884C457.408 357.693 481 290.852 481 226.5C481 202.206 477.599 179.192 470.873 157.878C495.405 144.881 512 118.65 512 90.5ZM447.948 134.9C439.323 137.268 434.665 146.624 437.991 154.937C446.623 176.514 451 200.591 451 226.5C451 284.242 429.755 344.314 392.712 391.314C354.499 439.798 305.947 466.5 256 466.5C206.054 466.5 157.502 439.798 119.289 391.314C82.245 344.314 61 284.242 61 226.5C61 200.59 65.377 176.513 74.01 154.938C77.332 146.636 72.688 137.271 64.053 134.9C44.321 129.485 30 110.812 30 90.5C30 65.687 50.187 45.5 75 45.5C92.242 45.5 108.954 56.161 116.585 72.029C120.476 80.118 130.57 83.005 138.149 78.187C170.763 57.457 211.515 46.5 256 46.5C300.486 46.5 341.238 57.457 373.851 78.187C381.425 83.001 391.522 80.125 395.415 72.029C403.046 56.161 419.758 45.5 437 45.5C461.813 45.5 482 65.687 482 90.5C482 110.813 467.679 129.485 447.948 134.9ZM286 256.5C277.716 256.5 271 263.216 271 271.5C271 279.784 277.716 286.5 286 286.5C294.284 286.5 301 279.784 301 271.5C301 263.216 294.284 256.5 286 256.5Z"
    fill="#fff" />
</svg>