<svg width="512" height="512" viewBox="0 0 512 512" fill="none" xmlns="http://www.w3.org/2000/svg">
  <g clip-path="url(#clip0)">
    <path
      d="M286 337C277.716 337 271 343.716 271 352V382C271 390.284 277.716 397 286 397C294.284 397 301 390.284 301 382V352C301 343.716 294.284 337 286 337ZM226 337C217.716 337 211 343.716 211 352V382C211 390.284 217.716 397 226 397C234.284 397 241 390.284 241 382V352C241 343.716 234.284 337 226 337ZM316 157C307.716 157 301 163.716 301 172C301 180.284 307.716 187 316 187C324.284 187 331 180.284 331 172C331 163.716 324.284 157 316 157ZM196 157C187.716 157 181 163.716 181 172C181 180.284 187.716 187 196 187C204.284 187 211 180.284 211 172C211 163.716 204.284 157 196 157ZM451 307C451 285.3 447.729 283.028 417.343 137.307C400.931 60.643 333.076 5 256 5C178.924 5 111.07 60.643 94.657 137.307C64.082 283.933 61 285.344 61 307C61 349.278 83.667 388.948 123.576 417.263C121.959 424.81 121 432.995 121 442C121 463.95 136.42 483.762 164.42 497.787C189.157 510.177 221.681 517 256 517C290.319 517 322.843 510.177 347.58 497.787C375.58 483.762 391 463.95 391 442C391 432.995 390.041 424.81 388.424 417.263C428.333 388.948 451 349.279 451 307ZM256 487C195.904 487 151 463.242 151 442C151 416.834 160.467 400.741 171.429 382.105C182.946 362.526 196 340.335 196 307C196 273.916 222.916 247 256 247C289.084 247 316 273.916 316 307C316 340.335 329.054 362.526 340.571 382.105C351.533 400.741 361 416.834 361 442C361 463.242 316.096 487 256 487ZM377.905 387.642C374.268 380.228 370.265 373.414 366.429 366.895C355.467 348.259 346 332.166 346 307C346 257.374 305.626 217 256 217C206.374 217 166 257.374 166 307C166 332.166 156.533 348.259 145.571 366.895C141.736 373.415 137.732 380.228 134.095 387.642C106.51 365.604 91 336.937 91 307C91 290.732 92.546 293.452 123.992 143.587C137.462 80.667 192.98 35 256 35C319.021 35 374.538 80.667 388.008 143.587C419.455 293.459 421 290.737 421 307C421 336.937 405.49 365.604 377.905 387.642Z"
      fill="#fff" />
  </g>
  <defs>
    <clipPath id="clip0">
      <rect width="512" height="512" fill="#fff" />
    </clipPath>
  </defs>
</svg>