<svg width="512" height="512" viewBox="0 0 512 512" fill="none" xmlns="http://www.w3.org/2000/svg">
  <path
    d="M166 90C174.284 90 181 83.284 181 75C181 66.716 174.284 60 166 60C157.716 60 151 66.716 151 75C151 83.284 157.716 90 166 90ZM346 90C354.284 90 361 83.284 361 75C361 66.716 354.284 60 346 60C337.716 60 331 66.716 331 75C331 83.284 337.716 90 346 90ZM415.275 103.469C419.049 94.468 421 84.851 421 75C421 33.645 387.355 0 346 0H166C124.645 0 91 33.645 91 75C91 84.851 92.951 94.468 96.725 103.469C56.793 123.679 31 164.539 31 210C31 276.168 84.832 330 151 330V497C151 505.284 157.716 512 166 512H346C354.284 512 361 505.284 361 497V330C427.168 330 481 276.168 481 210C481 164.539 455.207 123.679 415.275 103.469ZM361 300H346C337.716 300 331 306.716 331 315V482H181V315C181 306.716 174.284 300 166 300H151C101.374 300 61 259.626 61 210C61 171.446 85.842 137.293 122.817 125.017C127.394 123.497 130.96 119.871 132.403 115.269C133.845 110.668 132.988 105.654 130.099 101.793C124.146 93.838 121 84.573 121 75C121 50.187 141.187 30 166 30H346C370.813 30 391 50.187 391 75C391 84.574 387.854 93.838 381.9 101.793C379.01 105.654 378.153 110.668 379.596 115.269C381.038 119.87 384.606 123.497 389.182 125.017C426.157 137.293 451 171.446 451 210C451 259.626 410.626 300 361 300ZM346 150H315.689C301.604 131.306 279.455 120 256 120C232.545 120 210.396 131.306 196.311 150C196.311 150 165.676 150 165.599 150.002C140.97 150.219 121 170.322 121 195C121 219.813 141.187 240 166 240C207.355 240 241 273.645 241 315C241 323.284 247.716 330 256 330C264.284 330 271 323.284 271 315C271 273.645 304.645 240 346 240C370.813 240 391 219.813 391 195C391 170.187 370.813 150 346 150ZM346 210C307.853 210 274.39 230.452 256 260.963C237.61 230.452 204.147 210 166 210C157.729 210 151 203.271 151 195C151 186.729 157.729 180 166 180H204.322C209.662 180 214.6 177.161 217.286 172.545C225.502 158.428 239.975 150 256 150C271.396 150 285.358 157.779 293.716 170.907C296.01 176.255 301.321 180 307.508 180H346C354.271 180 361 186.729 361 195C361 203.271 354.271 210 346 210Z"
    fill="#fff" />
</svg>