<svg width="512" height="512" viewBox="0 0 512 512" fill="none" xmlns="http://www.w3.org/2000/svg">
  <path
    d="M301 241H211C161.374 241 121 281.374 121 331C121 380.626 161.374 421 211 421H301C350.626 421 391 380.626 391 331C391 281.374 350.626 241 301 241ZM301 391H271V352.213L296.606 326.607C302.464 320.749 302.464 311.252 296.606 305.394C290.749 299.536 281.251 299.536 275.393 305.394L256 324.787L236.606 305.394C230.749 299.536 221.251 299.536 215.393 305.394C209.535 311.252 209.535 320.749 215.393 326.607L241 352.213V391H211C177.916 391 151 364.084 151 331C151 297.916 177.916 271 211 271H301C334.084 271 361 297.916 361 331C361 364.084 334.084 391 301 391ZM196 211C204.284 211 211 204.284 211 196C211 187.716 204.284 181 196 181C187.716 181 181 187.716 181 196C181 204.284 187.716 211 196 211ZM316 211C324.284 211 331 204.284 331 196C331 187.716 324.284 181 316 181C307.716 181 301 187.716 301 196C301 204.284 307.716 211 316 211ZM512 75C512 33.645 478.355 0 437 0C411.54 0 387.555 13.516 373.598 34.415C337.721 11.848 297.401 0 256 0C214.609 0 174.297 11.85 138.411 34.425C124.452 13.519 100.463 0 75 0C33.645 0 0 33.645 0 75C0 104.141 17.601 130.823 43.146 143.387C14.871 200.193 0 269.804 0 346C0 437.178 74.839 512 166 512H346C437.18 512 512 437.162 512 346C512 269.82 497.124 200.21 468.843 143.394C494.396 130.83 512 104.146 512 75ZM482 346C482 420.991 420.99 482 346 482H166C91.01 482 30 420.991 30 346C30 267.73 46.486 197.299 77.677 142.322C82.738 133.401 77.533 122.119 67.453 120.188C46.102 116.097 30 96.67 30 75C30 50.187 50.187 30 75 30C93.981 30 112.301 43.175 118.559 61.327C121.849 70.875 133.485 74.522 141.641 68.512C175.814 43.317 215.359 30 256 30C296.656 30 336.204 43.313 370.368 68.501C378.496 74.495 390.149 70.895 393.451 61.316C399.705 43.17 418.021 30 437 30C461.813 30 482 50.187 482 75C482 96.672 465.894 116.102 444.536 120.194C434.462 122.124 429.247 133.4 434.311 142.328C465.51 197.32 482 267.748 482 346Z"
    fill="#fff" />
</svg>