<svg width="512" height="512" viewBox="0 0 512 512" fill="none" xmlns="http://www.w3.org/2000/svg">
  <g clip-path="url(#clip0)">
    <path
      d="M226 241C217.716 241 211 247.716 211 256C211 264.284 217.716 271 226 271C234.284 271 241 264.284 241 256C241 247.716 234.284 241 226 241ZM136 151C127.716 151 121 157.716 121 166C121 174.284 127.716 181 136 181C144.284 181 151 174.284 151 166C151 157.716 144.284 151 136 151ZM448.672 184.459C450.22 178.434 451 172.26 451 166C451 124.645 417.355 91 376 91C349.882 91 326.108 104.421 312.535 126.034C293.48 122.691 274.512 121 256 121C237.489 121 218.521 122.691 199.465 126.035C185.893 104.421 162.119 91 136 91C94.645 91 61 124.645 61 166C61 172.259 61.78 178.433 63.328 184.459C22.938 215.776 0 252.358 0 286C0 324.017 28.098 358.921 79.117 384.285C126.742 407.961 189.561 421 256 421C322.439 421 385.258 407.961 432.883 384.285C483.902 358.921 512 324.017 512 286C512 252.358 489.063 215.777 448.672 184.459ZM419.528 357.421C375.972 379.075 317.896 391 256 391C194.104 391 136.028 379.075 92.472 357.421C60.705 341.629 39.793 321.805 32.697 301.372C69.773 302.924 100.371 309.152 132.506 315.698C169.437 323.221 207.625 331 256 331C304.375 331 342.563 323.221 379.494 315.698C411.629 309.152 442.226 302.924 479.303 301.372C472.207 321.806 451.296 341.629 419.528 357.421ZM373.506 286.302C336.399 293.86 301.351 301 256 301C210.649 301 175.601 293.86 138.494 286.302C106.073 279.698 72.68 272.898 32.278 271.335C38.909 248.907 59.679 223.594 89.748 202.199C95.532 198.083 97.64 190.476 94.797 183.97C92.277 178.207 91 172.16 91 166C91 141.187 111.187 121 136 121C154.19 121 170.485 131.855 177.515 148.656C180.291 155.291 187.39 159.021 194.422 157.549C215.211 153.204 235.929 151 256 151C276.072 151 296.79 153.204 317.578 157.549C324.613 159.02 331.71 155.29 334.485 148.656C341.515 131.856 357.811 121 376 121C400.813 121 421 141.187 421 166C421 172.162 419.723 178.208 417.204 183.969C414.36 190.474 416.467 198.083 422.252 202.199C452.32 223.594 473.091 248.907 479.722 271.335C439.32 272.897 405.927 279.697 373.506 286.302ZM376 151C367.716 151 361 157.716 361 166C361 174.284 367.716 181 376 181C384.284 181 391 174.284 391 166C391 157.716 384.284 151 376 151ZM286 241C277.716 241 271 247.716 271 256C271 264.284 277.716 271 286 271C294.284 271 301 264.284 301 256C301 247.716 294.284 241 286 241Z"
      fill="#fff" />
  </g>
  <defs>
    <clipPath id="clip0">
      <rect width="512" height="512" fill="#fff" />
    </clipPath>
  </defs>
</svg>